<svg width="40" height="46" viewBox="0 0 40 46" fill="none" xmlns="http://www.w3.org/2000/svg">
<path d="M26.1576 21.492C26.1576 22.872 25.1438 24.0031 23.8595 24.0031C22.5978 24.0031 21.5614 22.872 21.5614 21.492C21.5614 20.1119 22.5753 18.9808 23.8595 18.9808C25.1438 18.9808 26.1576 20.1119 26.1576 21.492ZM15.636 18.9808C14.3518 18.9808 13.3379 20.1119 13.3379 21.492C13.3379 22.872 14.3743 24.0031 15.636 24.0031C16.9202 24.0031 17.9341 22.872 17.9341 21.492C17.9566 20.1119 16.9202 18.9808 15.636 18.9808ZM39.4279 4.66036V45.2462C33.7519 40.2096 35.5672 41.8768 28.9739 35.7219L30.168 39.9072H4.6187C2.07278 39.9072 0 37.8258 0 35.2468V4.66036C0 2.08133 2.07278 0 4.6187 0H34.8092C37.3551 0 39.4279 2.08133 39.4279 4.66036ZM33.0068 26.1071C33.0068 18.8224 29.7625 12.9178 29.7625 12.9178C26.5181 10.4745 23.4315 10.5424 23.4315 10.5424L23.116 10.9043C26.9462 12.0807 28.7261 13.7775 28.7261 13.7775C23.3742 10.8321 17.0874 10.8316 11.896 13.1214C11.0624 13.506 10.5667 13.7775 10.5667 13.7775C10.5667 13.7775 12.4367 11.9902 16.4921 10.8138L16.2668 10.5424C16.2668 10.5424 13.1802 10.4745 9.93584 12.9178C9.93584 12.9178 6.69148 18.8224 6.69148 26.1071C6.69148 26.1071 8.58402 29.3874 13.5632 29.5458C13.5632 29.5458 14.3968 28.5277 15.0727 27.6681C12.2114 26.8084 11.1299 24.9985 11.1299 24.9985C11.4614 25.2315 12.0079 25.5334 12.0537 25.5641C15.8565 27.7025 21.2583 28.4031 26.1126 26.3559C26.9011 26.0618 27.7798 25.632 28.7035 25.0212C28.7035 25.0212 27.577 26.8763 24.6256 27.7133C25.3015 28.573 26.1126 29.5458 26.1126 29.5458C31.0917 29.3874 33.0068 26.1071 33.0068 26.1071Z" fill="#FBFBFC"/>
</svg>
