<svg width="40" height="40" viewBox="0 0 40 40" fill="none" xmlns="http://www.w3.org/2000/svg">
<path d="M19.7294 9.64796C14.132 9.64796 9.61716 14.1814 9.61716 19.8018C9.61716 25.4223 14.132 29.9557 19.7294 29.9557C25.3267 29.9557 29.8416 25.4223 29.8416 19.8018C29.8416 14.1814 25.3267 9.64796 19.7294 9.64796ZM19.7294 26.4032C16.1122 26.4032 13.1551 23.4428 13.1551 19.8018C13.1551 16.1609 16.1034 13.2005 19.7294 13.2005C23.3553 13.2005 26.3036 16.1609 26.3036 19.8018C26.3036 23.4428 23.3465 26.4032 19.7294 26.4032ZM32.6138 9.23261C32.6138 10.5493 31.5577 11.601 30.2552 11.601C28.9439 11.601 27.8966 10.5405 27.8966 9.23261C27.8966 7.92472 28.9527 6.86426 30.2552 6.86426C31.5577 6.86426 32.6138 7.92472 32.6138 9.23261ZM39.3113 11.6363C39.1617 8.46378 38.44 5.65357 36.1254 3.33823C33.8196 1.0229 31.0209 0.298254 27.8614 0.139185C24.6051 -0.046395 14.8449 -0.046395 11.5886 0.139185C8.43784 0.289417 5.63916 1.01406 3.32453 3.3294C1.0099 5.64473 0.29703 8.45494 0.138614 11.6275C-0.0462046 14.8972 -0.0462046 24.6976 0.138614 27.9674C0.288229 31.1399 1.0099 33.9501 3.32453 36.2655C5.63916 38.5808 8.42904 39.3054 11.5886 39.4645C14.8449 39.6501 24.6051 39.6501 27.8614 39.4645C31.0209 39.3143 33.8196 38.5896 36.1254 36.2655C38.4312 33.9501 39.1529 31.1399 39.3113 27.9674C39.4961 24.6976 39.4961 14.9061 39.3113 11.6363ZM35.1045 31.4757C34.418 33.2078 33.0891 34.5422 31.3553 35.2403C28.7591 36.2743 22.5985 36.0357 19.7294 36.0357C16.8603 36.0357 10.6909 36.2655 8.10341 35.2403C6.37844 34.5511 5.0495 33.2166 4.35423 31.4757C3.32453 28.8688 3.56216 22.6828 3.56216 19.8018C3.56216 16.9209 3.33333 10.7261 4.35423 8.12797C5.0407 6.39589 6.36963 5.06148 8.10341 4.36334C10.6997 3.3294 16.8603 3.568 19.7294 3.568C22.5985 3.568 28.7679 3.33823 31.3553 4.36334C33.0803 5.05264 34.4092 6.38705 35.1045 8.12797C36.1342 10.7349 35.8966 16.9209 35.8966 19.8018C35.8966 22.6828 36.1342 28.8776 35.1045 31.4757Z" fill="#FBFBFC"/>
</svg>
