<svg width="43" height="31" viewBox="0 0 43 31" fill="none" xmlns="http://www.w3.org/2000/svg">
<path d="M41.8313 4.71967C41.34 2.8619 39.8922 1.39878 38.0541 0.902254C34.7222 0 21.362 0 21.362 0C21.362 0 8.00191 0 4.67002 0.902254C2.83185 1.39886 1.38412 2.8619 0.892761 4.71967C0 8.08698 0 15.1126 0 15.1126C0 15.1126 0 22.1381 0.892761 25.5054C1.38412 27.3632 2.83185 28.7654 4.67002 29.2619C8.00191 30.1641 21.362 30.1641 21.362 30.1641C21.362 30.1641 34.7222 30.1641 38.0541 29.2619C39.8922 28.7654 41.34 27.3632 41.8313 25.5054C42.7241 22.1381 42.7241 15.1126 42.7241 15.1126C42.7241 15.1126 42.7241 8.08698 41.8313 4.71967ZM16.9925 21.4912V8.73386L28.159 15.1127L16.9925 21.4912Z" fill="#FBFBFC"/>
</svg>
