<svg width="242" height="172" viewBox="0 0 242 172" fill="none" xmlns="http://www.w3.org/2000/svg">
<rect x="28" y="69" width="6" height="58" transform="rotate(-180 28 69)" fill="#44A36F"/>
<rect x="26" y="11" width="2" height="11" transform="rotate(-180 26 11)" fill="#44A36F"/>
<rect x="50" y="69" width="6" height="50" transform="rotate(90 50 69)" fill="#44A36F"/>
<path d="M61.096 51.312C61.736 49.392 62.872 47.936 64.504 46.944C66.136 45.92 68.216 45.408 70.744 45.408V47.664H70.024C67.464 47.664 65.336 48.4 63.64 49.872C61.944 51.312 61.096 53.68 61.096 56.976V72H58.936V45.936H61.096V51.312ZM88.7732 58.944C88.7732 56.256 89.3012 53.904 90.3572 51.888C91.4452 49.872 92.9332 48.32 94.8212 47.232C96.7413 46.144 98.9173 45.6 101.349 45.6C104.101 45.6 106.437 46.272 108.357 47.616C110.277 48.96 111.621 50.672 112.389 52.752V45.936H114.549V72H112.389V65.136C111.621 67.248 110.261 68.992 108.309 70.368C106.389 71.712 104.069 72.384 101.349 72.384C98.9173 72.384 96.7413 71.84 94.8212 70.752C92.9332 69.632 91.4452 68.064 90.3572 66.048C89.3012 64 88.7732 61.632 88.7732 58.944ZM112.389 58.944C112.389 56.672 111.909 54.672 110.949 52.944C110.021 51.184 108.741 49.84 107.109 48.912C105.477 47.952 103.653 47.472 101.637 47.472C99.5253 47.472 97.6693 47.936 96.0693 48.864C94.4692 49.76 93.2212 51.072 92.3252 52.8C91.4292 54.528 90.9812 56.576 90.9812 58.944C90.9812 61.312 91.4292 63.36 92.3252 65.088C93.2212 66.816 94.4692 68.144 96.0693 69.072C97.7012 70 99.5573 70.464 101.637 70.464C103.653 70.464 105.477 70 107.109 69.072C108.773 68.112 110.069 66.768 110.997 65.04C111.925 63.28 112.389 61.248 112.389 58.944ZM135.47 58.944C135.47 56.256 135.998 53.904 137.054 51.888C138.142 49.872 139.63 48.32 141.518 47.232C143.438 46.144 145.614 45.6 148.046 45.6C150.702 45.6 153.006 46.272 154.958 47.616C156.91 48.928 158.286 50.64 159.086 52.752V36.48H161.246V72H159.086V65.088C158.318 67.232 156.974 68.992 155.054 70.368C153.134 71.712 150.798 72.384 148.046 72.384C145.614 72.384 143.438 71.84 141.518 70.752C139.63 69.632 138.142 68.064 137.054 66.048C135.998 64 135.47 61.632 135.47 58.944ZM159.086 58.944C159.086 56.672 158.606 54.672 157.646 52.944C156.718 51.184 155.438 49.84 153.806 48.912C152.174 47.952 150.35 47.472 148.334 47.472C146.222 47.472 144.366 47.936 142.766 48.864C141.166 49.76 139.918 51.072 139.022 52.8C138.126 54.528 137.678 56.576 137.678 58.944C137.678 61.312 138.126 63.36 139.022 65.088C139.918 66.816 141.166 68.144 142.766 69.072C144.398 70 146.254 70.464 148.334 70.464C150.35 70.464 152.174 70 153.806 69.072C155.47 68.112 156.766 66.768 157.694 65.04C158.622 63.28 159.086 61.248 159.086 58.944ZM206.983 57.216C206.983 58.368 206.951 59.232 206.887 59.808H184.375C184.439 62.144 184.951 64.112 185.911 65.712C186.871 67.312 188.135 68.512 189.703 69.312C191.271 70.112 192.983 70.512 194.839 70.512C197.399 70.512 199.543 69.888 201.271 68.64C202.999 67.36 204.087 65.632 204.535 63.456H206.791C206.279 66.112 204.967 68.272 202.855 69.936C200.743 71.568 198.071 72.384 194.839 72.384C192.407 72.384 190.231 71.84 188.311 70.752C186.391 69.664 184.887 68.112 183.799 66.096C182.711 64.048 182.167 61.664 182.167 58.944C182.167 56.224 182.695 53.856 183.751 51.84C184.839 49.824 186.343 48.288 188.263 47.232C190.183 46.144 192.375 45.6 194.839 45.6C197.335 45.6 199.495 46.144 201.319 47.232C203.175 48.288 204.583 49.712 205.543 51.504C206.503 53.264 206.983 55.168 206.983 57.216ZM204.823 58.032C204.919 55.728 204.503 53.776 203.575 52.176C202.679 50.576 201.447 49.392 199.879 48.624C198.311 47.824 196.615 47.424 194.791 47.424C192.967 47.424 191.271 47.824 189.703 48.624C188.167 49.392 186.903 50.576 185.911 52.176C184.951 53.776 184.439 55.728 184.375 58.032H204.823ZM230.071 51.312C230.711 49.392 231.847 47.936 233.479 46.944C235.111 45.92 237.191 45.408 239.719 45.408V47.664H238.999C236.439 47.664 234.311 48.4 232.615 49.872C230.919 51.312 230.071 53.68 230.071 56.976V72H227.911V45.936H230.071V51.312Z" fill="#44A36F"/>
<path d="M61.096 51.312H59.096L62.9934 51.9445L61.096 51.312ZM64.504 46.944L65.5428 48.653L65.555 48.6457L65.567 48.6381L64.504 46.944ZM70.744 45.408H72.744V43.408H70.744V45.408ZM70.744 47.664V49.664H72.744V47.664H70.744ZM63.64 49.872L64.9345 51.3966L64.9427 51.3896L64.9509 51.3824L63.64 49.872ZM61.096 72V74H63.096V72H61.096ZM58.936 72H56.936V74H58.936V72ZM58.936 45.936V43.936H56.936V45.936H58.936ZM61.096 45.936H63.096V43.936H61.096V45.936ZM62.9934 51.9445C63.4933 50.4446 64.3408 49.3837 65.5428 48.653L63.4652 45.235C61.4032 46.4883 59.9787 48.3394 59.1986 50.6795L62.9934 51.9445ZM65.567 48.6381C66.7954 47.8674 68.4771 47.408 70.744 47.408V43.408C67.9549 43.408 65.4766 43.9726 63.441 45.2499L65.567 48.6381ZM68.744 45.408V47.664H72.744V45.408H68.744ZM70.744 45.664H70.024V49.664H70.744V45.664ZM70.024 45.664C67.0541 45.664 64.4396 46.5298 62.3291 48.3616L64.9509 51.3824C66.2324 50.2702 67.8739 49.664 70.024 49.664V45.664ZM62.3455 48.3474C60.0211 50.321 59.096 53.3811 59.096 56.976H63.096C63.096 53.9789 63.8669 52.303 64.9345 51.3966L62.3455 48.3474ZM59.096 56.976V72H63.096V56.976H59.096ZM61.096 70H58.936V74H61.096V70ZM60.936 72V45.936H56.936V72H60.936ZM58.936 47.936H61.096V43.936H58.936V47.936ZM59.096 45.936V51.312H63.096V45.936H59.096ZM90.3573 51.888L88.5972 50.9381L88.5913 50.949L88.5856 50.96L90.3573 51.888ZM94.8213 47.232L93.8352 45.492L93.8289 45.4955L93.8227 45.4991L94.8213 47.232ZM112.389 52.752L110.513 53.4447L114.389 52.752H112.389ZM112.389 45.936V43.936H110.389V45.936H112.389ZM114.549 45.936H116.549V43.936H114.549V45.936ZM114.549 72V74H116.549V72H114.549ZM112.389 72H110.389V74H112.389V72ZM112.389 65.136H114.389L110.51 64.4525L112.389 65.136ZM108.309 70.368L109.456 72.0065L109.462 72.0027L108.309 70.368ZM94.8213 70.752L93.8008 72.4721L93.8179 72.4822L93.8352 72.492L94.8213 70.752ZM90.3573 66.048L88.5796 66.9646L88.5883 66.9813L88.5972 66.9979L90.3573 66.048ZM110.949 52.944L109.18 53.8768L109.19 53.8962L109.201 53.9153L110.949 52.944ZM107.109 48.912L106.095 50.6359L106.108 50.6433L106.121 50.6506L107.109 48.912ZM96.0693 48.864L97.0465 50.609L97.0596 50.6016L97.0727 50.5941L96.0693 48.864ZM92.3252 52.8L94.1008 53.7206L92.3252 52.8ZM92.3252 65.088L94.1008 64.1674L92.3252 65.088ZM96.0693 69.072L95.0658 70.8021L95.0732 70.8064L95.0806 70.8106L96.0693 69.072ZM107.109 69.072L108.098 70.8106L108.109 70.8044L107.109 69.072ZM110.997 65.04L112.759 65.9863L112.763 65.9795L112.766 65.9728L110.997 65.04ZM90.7733 58.944C90.7733 56.5208 91.2478 54.498 92.1289 52.816L88.5856 50.96C87.3547 53.31 86.7733 55.9912 86.7733 58.944H90.7733ZM92.1173 52.8379C93.0385 51.1309 94.2702 49.8579 95.8198 48.9649L93.8227 45.4991C91.5963 46.7821 89.852 48.6131 88.5972 50.9381L92.1173 52.8379ZM95.8073 48.972C97.3966 48.0714 99.2267 47.6 101.349 47.6V43.6C98.6078 43.6 96.0859 44.2166 93.8352 45.492L95.8073 48.972ZM101.349 47.6C103.764 47.6 105.682 48.1846 107.21 49.2545L109.504 45.9775C107.192 44.3594 104.438 43.6 101.349 43.6V47.6ZM107.21 49.2545C108.817 50.3789 109.894 51.7693 110.513 53.4447L114.265 52.0592C113.348 49.5747 111.738 47.5411 109.504 45.9775L107.21 49.2545ZM114.389 52.752V45.936H110.389V52.752H114.389ZM112.389 47.936H114.549V43.936H112.389V47.936ZM112.549 45.936V72H116.549V45.936H112.549ZM114.549 70H112.389V74H114.549V70ZM114.389 72V65.136H110.389V72H114.389ZM110.51 64.4525C109.89 66.1559 108.797 67.5771 107.157 68.7333L109.462 72.0027C111.725 70.4069 113.352 68.34 114.269 65.8195L110.51 64.4525ZM107.162 68.7295C105.63 69.8021 103.727 70.384 101.349 70.384V74.384C104.412 74.384 107.148 73.6219 109.456 72.0065L107.162 68.7295ZM101.349 70.384C99.2267 70.384 97.3966 69.9126 95.8073 69.012L93.8352 72.492C96.0859 73.7674 98.6078 74.384 101.349 74.384V70.384ZM95.8417 69.0319C94.2794 68.1051 93.041 66.8096 92.1173 65.0981L88.5972 66.9979C89.8495 69.3184 91.5871 71.1589 93.8008 72.4721L95.8417 69.0319ZM92.1349 65.1314C91.2476 63.4106 90.7733 61.3663 90.7733 58.944H86.7733C86.7733 61.8977 87.3549 64.5894 88.5796 66.9646L92.1349 65.1314ZM114.389 58.944C114.389 56.3834 113.846 54.0397 112.698 51.9727L109.201 53.9153C109.973 55.3043 110.389 56.9606 110.389 58.944H114.389ZM112.718 52.0112C111.624 49.9348 110.082 48.3015 108.098 47.1734L106.121 50.6506C107.401 51.3785 108.419 52.4332 109.18 53.8768L112.718 52.0112ZM108.123 47.1881C106.164 46.0356 103.986 45.472 101.637 45.472V49.472C103.321 49.472 104.791 49.8684 106.095 50.6359L108.123 47.1881ZM101.637 45.472C99.2236 45.472 97.0118 46.0053 95.0658 47.1339L97.0727 50.5941C98.3267 49.8667 99.8269 49.472 101.637 49.472V45.472ZM95.092 47.119C93.1298 48.2179 91.614 49.8269 90.5497 51.8794L94.1008 53.7206C94.8285 52.3171 95.8087 51.3021 97.0465 50.609L95.092 47.119ZM90.5497 51.8794C89.4776 53.947 88.9813 56.3241 88.9813 58.944H92.9813C92.9813 56.8279 93.3809 55.109 94.1008 53.7206L90.5497 51.8794ZM88.9813 58.944C88.9813 61.5639 89.4776 63.941 90.5497 66.0086L94.1008 64.1674C93.3809 62.779 92.9813 61.0601 92.9813 58.944H88.9813ZM90.5497 66.0086C91.6113 68.0558 93.1191 69.673 95.0658 70.8021L97.0727 67.3419C95.8194 66.615 94.8312 65.5762 94.1008 64.1674L90.5497 66.0086ZM95.0806 70.8106C97.0456 71.9279 99.2489 72.464 101.637 72.464V68.464C99.8656 68.464 98.3569 68.0721 97.0579 67.3334L95.0806 70.8106ZM101.637 72.464C103.973 72.464 106.142 71.9225 108.098 70.8106L106.121 67.3334C104.812 68.0775 103.333 68.464 101.637 68.464V72.464ZM108.109 70.8044C110.102 69.6543 111.659 68.0349 112.759 65.9863L109.235 64.0937C108.479 65.5011 107.444 66.5697 106.11 67.3396L108.109 70.8044ZM112.766 65.9728C113.868 63.8829 114.389 61.5215 114.389 58.944H110.389C110.389 60.9745 109.982 62.6771 109.228 64.1072L112.766 65.9728ZM137.054 51.888L135.294 50.9381L135.288 50.949L135.282 50.96L137.054 51.888ZM141.518 47.232L140.532 45.492L140.526 45.4955L140.52 45.4991L141.518 47.232ZM154.958 47.616L153.824 49.2633L153.833 49.2696L153.842 49.2759L154.958 47.616ZM159.086 52.752L157.216 53.4605L161.086 52.752H159.086ZM159.086 36.48V34.48H157.086V36.48H159.086ZM161.246 36.48H163.246V34.48H161.246V36.48ZM161.246 72V74H163.246V72H161.246ZM159.086 72H157.086V74H159.086V72ZM159.086 65.088H161.086L157.203 64.4135L159.086 65.088ZM155.054 70.368L156.201 72.0065L156.21 72.0001L156.219 71.9936L155.054 70.368ZM141.518 70.752L140.498 72.4721L140.515 72.4822L140.532 72.492L141.518 70.752ZM137.054 66.048L135.277 66.9646L135.285 66.9813L135.294 66.9979L137.054 66.048ZM157.646 52.944L155.877 53.8768L155.887 53.8962L155.898 53.9153L157.646 52.944ZM153.806 48.912L152.792 50.6359L152.805 50.6433L152.818 50.6506L153.806 48.912ZM142.766 48.864L143.743 50.609L143.757 50.6016L143.77 50.5941L142.766 48.864ZM139.022 52.8L140.798 53.7206L139.022 52.8ZM139.022 65.088L140.798 64.1674L139.022 65.088ZM142.766 69.072L141.763 70.8021L141.77 70.8064L141.778 70.8106L142.766 69.072ZM153.806 69.072L154.795 70.8106L154.806 70.8044L153.806 69.072ZM157.694 65.04L159.456 65.9863L159.46 65.9795L159.463 65.9728L157.694 65.04ZM137.47 58.944C137.47 56.5208 137.945 54.498 138.826 52.816L135.282 50.96C134.052 53.31 133.47 55.9912 133.47 58.944H137.47ZM138.814 52.8379C139.735 51.1309 140.967 49.8579 142.517 48.9649L140.52 45.4991C138.293 46.7821 136.549 48.6131 135.294 50.9381L138.814 52.8379ZM142.504 48.972C144.094 48.0714 145.924 47.6 148.046 47.6V43.6C145.305 43.6 142.783 44.2166 140.532 45.492L142.504 48.972ZM148.046 47.6C150.348 47.6 152.245 48.1762 153.824 49.2633L156.092 45.9687C153.767 44.3678 151.056 43.6 148.046 43.6V47.6ZM153.842 49.2759C155.466 50.3668 156.569 51.7529 157.216 53.4605L160.956 52.0435C160.003 49.5271 158.355 47.4892 156.074 45.9561L153.842 49.2759ZM161.086 52.752V36.48H157.086V52.752H161.086ZM159.086 38.48H161.246V34.48H159.086V38.48ZM159.246 36.48V72H163.246V36.48H159.246ZM161.246 70H159.086V74H161.246V70ZM161.086 72V65.088H157.086V72H161.086ZM157.203 64.4135C156.578 66.1601 155.492 67.5938 153.889 68.7424L156.219 71.9936C158.456 70.3902 160.059 68.3039 160.969 65.7625L157.203 64.4135ZM153.907 68.7295C152.379 69.7994 150.461 70.384 148.046 70.384V74.384C151.135 74.384 153.889 73.6246 156.201 72.0065L153.907 68.7295ZM148.046 70.384C145.924 70.384 144.094 69.9126 142.504 69.012L140.532 72.492C142.783 73.7674 145.305 74.384 148.046 74.384V70.384ZM142.539 69.0319C140.976 68.1051 139.738 66.8096 138.814 65.0981L135.294 66.9979C136.546 69.3184 138.284 71.1589 140.498 72.4721L142.539 69.0319ZM138.832 65.1314C137.944 63.4106 137.47 61.3663 137.47 58.944H133.47C133.47 61.8977 134.052 64.5894 135.277 66.9646L138.832 65.1314ZM161.086 58.944C161.086 56.3834 160.543 54.0397 159.394 51.9727L155.898 53.9153C156.67 55.3043 157.086 56.9606 157.086 58.944H161.086ZM159.415 52.0112C158.32 49.9348 156.779 48.3015 154.795 47.1734L152.818 50.6506C154.098 51.3785 155.116 52.4332 155.877 53.8768L159.415 52.0112ZM154.82 47.1881C152.861 46.0356 150.683 45.472 148.334 45.472V49.472C150.018 49.472 151.487 49.8684 152.792 50.6359L154.82 47.1881ZM148.334 45.472C145.921 45.472 143.709 46.0053 141.763 47.1339L143.77 50.5941C145.024 49.8667 146.524 49.472 148.334 49.472V45.472ZM141.789 47.119C139.827 48.2179 138.311 49.8269 137.247 51.8794L140.798 53.7206C141.525 52.3171 142.506 51.3021 143.743 50.609L141.789 47.119ZM137.247 51.8794C136.174 53.947 135.678 56.3241 135.678 58.944H139.678C139.678 56.8279 140.078 55.109 140.798 53.7206L137.247 51.8794ZM135.678 58.944C135.678 61.5639 136.174 63.941 137.247 66.0086L140.798 64.1674C140.078 62.779 139.678 61.0601 139.678 58.944H135.678ZM137.247 66.0086C138.308 68.0558 139.816 69.673 141.763 70.8021L143.77 67.3419C142.516 66.615 141.528 65.5762 140.798 64.1674L137.247 66.0086ZM141.778 70.8106C143.742 71.9279 145.946 72.464 148.334 72.464V68.464C146.562 68.464 145.054 68.0721 143.755 67.3334L141.778 70.8106ZM148.334 72.464C150.67 72.464 152.839 71.9225 154.795 70.8106L152.818 67.3334C151.509 68.0775 150.03 68.464 148.334 68.464V72.464ZM154.806 70.8044C156.799 69.6543 158.356 68.0349 159.456 65.9863L155.932 64.0937C155.176 65.5011 154.141 66.5697 152.807 67.3396L154.806 70.8044ZM159.463 65.9728C160.565 63.8829 161.086 61.5215 161.086 58.944H157.086C157.086 60.9745 156.679 62.6771 155.925 64.1072L159.463 65.9728ZM206.887 59.808V61.808H208.677L208.875 60.0289L206.887 59.808ZM184.375 59.808V57.808H182.319L182.376 59.8628L184.375 59.808ZM185.911 65.712L187.626 64.683L185.911 65.712ZM189.703 69.312L190.612 67.5305L189.703 69.312ZM201.271 68.64L202.442 70.2614L202.452 70.2543L202.461 70.2471L201.271 68.64ZM204.535 63.456V61.456H202.905L202.576 63.0527L204.535 63.456ZM206.791 63.456L208.755 63.8346L209.213 61.456H206.791V63.456ZM202.855 69.936L204.078 71.5186L204.085 71.5128L204.093 71.507L202.855 69.936ZM188.311 70.752L187.325 72.492L188.311 70.752ZM183.799 66.096L182.033 67.0343L182.039 67.0459L183.799 66.096ZM183.751 51.84L181.991 50.8901L181.985 50.901L181.979 50.912L183.751 51.84ZM188.263 47.232L189.227 48.9844L189.238 48.9783L189.249 48.972L188.263 47.232ZM201.319 47.232L200.294 48.9496L200.312 48.9602L200.33 48.9703L201.319 47.232ZM205.543 51.504L203.78 52.4484L203.784 52.4551L203.787 52.4617L205.543 51.504ZM204.823 58.032V60.032H206.741L206.821 58.1153L204.823 58.032ZM203.575 52.176L201.83 53.1532L201.837 53.1664L201.845 53.1794L203.575 52.176ZM199.879 48.624L198.97 50.4055L198.985 50.4129L198.999 50.4201L199.879 48.624ZM189.703 48.624L190.597 50.4129L190.605 50.4092L190.612 50.4055L189.703 48.624ZM185.911 52.176L184.211 51.1221L184.204 51.1345L184.196 51.147L185.911 52.176ZM184.375 58.032L182.376 57.9765L182.319 60.032H184.375V58.032ZM204.983 57.216C204.983 58.3512 204.951 59.125 204.899 59.5871L208.875 60.0289C208.951 59.339 208.983 58.3848 208.983 57.216H204.983ZM206.887 57.808H184.375V61.808H206.887V57.808ZM182.376 59.8628C182.447 62.4571 183.02 64.7805 184.196 66.741L187.626 64.683C186.882 63.4435 186.431 61.831 186.374 59.7532L182.376 59.8628ZM184.196 66.741C185.337 68.6423 186.872 70.1128 188.794 71.0935L190.612 67.5305C189.398 66.9112 188.405 65.9817 187.626 64.683L184.196 66.741ZM188.794 71.0935C190.659 72.045 192.685 72.512 194.839 72.512V68.512C193.281 68.512 191.883 68.179 190.612 67.5305L188.794 71.0935ZM194.839 72.512C197.733 72.512 200.309 71.8017 202.442 70.2614L200.1 67.0186C198.777 67.9743 197.065 68.512 194.839 68.512V72.512ZM202.461 70.2471C204.599 68.6636 205.95 66.4999 206.494 63.8593L202.576 63.0527C202.224 64.7641 201.399 66.0564 200.081 67.0329L202.461 70.2471ZM204.535 65.456H206.791V61.456H204.535V65.456ZM204.827 63.0774C204.406 65.2648 203.349 67.0003 201.617 68.365L204.093 71.507C206.585 69.5437 208.152 66.9592 208.755 63.8346L204.827 63.0774ZM201.632 68.3534C199.939 69.6614 197.724 70.384 194.839 70.384V74.384C198.418 74.384 201.547 73.4746 204.078 71.5186L201.632 68.3534ZM194.839 70.384C192.716 70.384 190.886 69.9126 189.297 69.012L187.325 72.492C189.576 73.7674 192.098 74.384 194.839 74.384V70.384ZM189.297 69.012C187.717 68.1166 186.476 66.8445 185.559 65.1461L182.039 67.0459C183.298 69.3795 185.065 71.2114 187.325 72.492L189.297 69.012ZM185.565 65.1577C184.655 63.4448 184.167 61.3934 184.167 58.944H180.167C180.167 61.9346 180.767 64.6512 182.033 67.0343L185.565 65.1577ZM184.167 58.944C184.167 56.4845 184.643 54.4468 185.523 52.768L181.979 50.912C180.747 53.2652 180.167 55.9635 180.167 58.944H184.167ZM185.511 52.7899C186.425 51.0962 187.66 49.8464 189.227 48.9844L187.299 45.4796C185.026 46.7296 183.253 48.5518 181.991 50.8901L185.511 52.7899ZM189.249 48.972C190.834 48.0736 192.679 47.6 194.839 47.6V43.6C192.071 43.6 189.532 44.2144 187.277 45.492L189.249 48.972ZM194.839 47.6C197.038 47.6 198.831 48.0766 200.294 48.9496L202.344 45.5144C200.159 44.2114 197.632 43.6 194.839 43.6V47.6ZM200.33 48.9703C201.876 49.8498 203.007 51.0058 203.78 52.4484L207.306 50.5596C206.159 48.4182 204.474 46.7262 202.308 45.4937L200.33 48.9703ZM203.787 52.4617C204.583 53.9214 204.983 55.4951 204.983 57.216H208.983C208.983 54.8409 208.423 52.6066 207.299 50.5463L203.787 52.4617ZM206.821 58.1153C206.929 55.5245 206.466 53.1745 205.305 51.1726L201.845 53.1794C202.54 54.3775 202.909 55.9315 202.825 57.9487L206.821 58.1153ZM205.32 51.1988C204.236 49.2631 202.711 47.7839 200.759 46.8279L198.999 50.4201C200.183 51.0001 201.122 51.8889 201.83 53.1532L205.32 51.1988ZM200.788 46.8425C198.928 45.8936 196.919 45.424 194.791 45.424V49.424C196.311 49.424 197.694 49.7544 198.97 50.4055L200.788 46.8425ZM194.791 45.424C192.663 45.424 190.654 45.8936 188.794 46.8425L190.612 50.4055C191.888 49.7544 193.271 49.424 194.791 49.424V45.424ZM188.809 46.8351C186.91 47.7846 185.379 49.2386 184.211 51.1221L187.611 53.2299C188.427 51.9134 189.424 50.9994 190.597 50.4129L188.809 46.8351ZM184.196 51.147C183.022 53.1034 182.447 55.4089 182.376 57.9765L186.374 58.0875C186.431 56.0471 186.88 54.4486 187.626 53.205L184.196 51.147ZM184.375 60.032H204.823V56.032H184.375V60.032ZM230.071 51.312H228.071L231.968 51.9445L230.071 51.312ZM233.479 46.944L234.518 48.653L234.53 48.6457L234.542 48.6381L233.479 46.944ZM239.719 45.408H241.719V43.408H239.719V45.408ZM239.719 47.664V49.664H241.719V47.664H239.719ZM232.615 49.872L233.909 51.3966L233.918 51.3896L233.926 51.3824L232.615 49.872ZM230.071 72V74H232.071V72H230.071ZM227.911 72H225.911V74H227.911V72ZM227.911 45.936V43.936H225.911V45.936H227.911ZM230.071 45.936H232.071V43.936H230.071V45.936ZM231.968 51.9445C232.468 50.4446 233.316 49.3837 234.518 48.653L232.44 45.235C230.378 46.4883 228.954 48.3394 228.174 50.6795L231.968 51.9445ZM234.542 48.6381C235.77 47.8674 237.452 47.408 239.719 47.408V43.408C236.93 43.408 234.452 43.9726 232.416 45.2499L234.542 48.6381ZM237.719 45.408V47.664H241.719V45.408H237.719ZM239.719 45.664H238.999V49.664H239.719V45.664ZM238.999 45.664C236.029 45.664 233.415 46.5298 231.304 48.3616L233.926 51.3824C235.207 50.2702 236.849 49.664 238.999 49.664V45.664ZM231.321 48.3474C228.996 50.321 228.071 53.3811 228.071 56.976H232.071C232.071 53.9789 232.842 52.303 233.909 51.3966L231.321 48.3474ZM228.071 56.976V72H232.071V56.976H228.071ZM230.071 70H227.911V74H230.071V70ZM229.911 72V45.936H225.911V72H229.911ZM227.911 47.936H230.071V43.936H227.911V47.936ZM228.071 45.936V51.312H232.071V45.936H228.071Z" fill="#44A36F"/>
<rect x="22" y="96.9999" width="6" height="58" fill="#CF5F5F"/>
<rect y="96.9999" width="6" height="50" transform="rotate(-90 0 96.9999)" fill="#CF5F5F"/>
<rect x="26" y="166" width="2" height="11" transform="rotate(-180 26 166)" fill="#CF5F5F"/>
<path d="M70.408 153.384C67.976 153.384 65.784 152.84 63.832 151.752C61.88 150.664 60.344 149.112 59.224 147.096C58.136 145.048 57.592 142.664 57.592 139.944C57.592 137.256 58.152 134.904 59.272 132.888C60.392 130.84 61.928 129.288 63.88 128.232C65.864 127.144 68.072 126.6 70.504 126.6C72.936 126.6 75.128 127.144 77.08 128.232C79.032 129.288 80.552 130.824 81.64 132.84C82.76 134.856 83.32 137.224 83.32 139.944C83.32 142.664 82.76 145.048 81.64 147.096C80.52 149.112 78.968 150.664 76.984 151.752C75.032 152.84 72.84 153.384 70.408 153.384ZM70.408 151.464C72.296 151.464 74.056 151.048 75.688 150.216C77.352 149.352 78.68 148.056 79.672 146.328C80.664 144.6 81.16 142.472 81.16 139.944C81.16 137.448 80.664 135.336 79.672 133.608C78.68 131.88 77.368 130.6 75.736 129.768C74.104 128.904 72.344 128.472 70.456 128.472C68.568 128.472 66.808 128.904 65.176 129.768C63.576 130.6 62.28 131.88 61.288 133.608C60.296 135.336 59.8 137.448 59.8 139.944C59.8 142.472 60.28 144.6 61.24 146.328C62.232 148.056 63.528 149.352 65.128 150.216C66.76 151.048 68.52 151.464 70.408 151.464ZM117.81 153L106.434 141.048V153H104.274V117.48H106.434V138.744L117.618 126.936H120.642L108.018 139.896L120.786 153H117.81ZM148.315 153.384C145.403 153.384 143.019 152.744 141.163 151.464C139.339 150.184 138.315 148.36 138.091 145.992H140.299C140.459 147.688 141.227 149.032 142.603 150.024C144.011 151.016 145.915 151.512 148.315 151.512C150.299 151.512 151.867 151.016 153.019 150.024C154.203 149 154.795 147.752 154.795 146.28C154.795 145.256 154.475 144.424 153.835 143.784C153.227 143.112 152.459 142.6 151.531 142.248C150.603 141.896 149.339 141.512 147.739 141.096C145.819 140.584 144.267 140.088 143.083 139.608C141.899 139.096 140.891 138.344 140.059 137.352C139.227 136.36 138.811 135.032 138.811 133.368C138.811 132.152 139.179 131.032 139.915 130.008C140.651 128.952 141.675 128.12 142.987 127.512C144.299 126.904 145.787 126.6 147.451 126.6C150.171 126.6 152.363 127.288 154.027 128.664C155.723 130.008 156.635 131.88 156.763 134.28H154.603C154.507 132.552 153.835 131.144 152.587 130.056C151.339 128.968 149.611 128.424 147.403 128.424C145.547 128.424 144.011 128.904 142.795 129.864C141.579 130.824 140.971 131.992 140.971 133.368C140.971 134.584 141.307 135.576 141.979 136.344C142.683 137.08 143.531 137.656 144.523 138.072C145.547 138.456 146.891 138.872 148.555 139.32C150.379 139.8 151.835 140.28 152.923 140.76C154.043 141.208 154.987 141.88 155.755 142.776C156.523 143.64 156.907 144.808 156.907 146.28C156.907 147.624 156.539 148.84 155.803 149.928C155.067 151.016 154.043 151.864 152.731 152.472C151.419 153.08 149.947 153.384 148.315 153.384Z" fill="#CF5F5F"/>
<path d="M63.832 151.752L64.8057 150.005L63.832 151.752ZM59.224 147.096L57.4578 148.034L57.4666 148.051L57.4757 148.067L59.224 147.096ZM59.272 132.888L61.0204 133.859L61.0267 133.848L59.272 132.888ZM63.88 128.232L64.8317 129.991L64.8417 129.986L63.88 128.232ZM77.08 128.232L76.1063 129.979L76.1173 129.985L76.1284 129.991L77.08 128.232ZM81.64 132.84L79.88 133.79L79.8858 133.801L79.8917 133.811L81.64 132.84ZM81.64 147.096L83.3884 148.067L83.3947 148.056L81.64 147.096ZM76.984 151.752L76.0223 149.998L76.0103 150.005L76.984 151.752ZM75.688 150.216L76.5964 151.998L76.603 151.994L76.6096 151.991L75.688 150.216ZM79.672 146.328L77.9375 145.332L79.672 146.328ZM79.672 133.608L77.9375 134.604L79.672 133.608ZM75.736 129.768L74.8002 131.536L74.8139 131.543L74.8276 131.55L75.736 129.768ZM65.176 129.768L66.0987 131.542L66.1053 131.539L66.1118 131.536L65.176 129.768ZM61.288 133.608L63.0225 134.604L61.288 133.608ZM61.24 146.328L59.4917 147.299L59.4985 147.312L59.5055 147.324L61.24 146.328ZM65.128 150.216L64.1777 151.976L64.1985 151.987L64.2196 151.998L65.128 150.216ZM70.408 151.384C68.2859 151.384 66.4341 150.913 64.8057 150.005L62.8583 153.499C65.1339 154.767 67.6661 155.384 70.408 155.384V151.384ZM64.8057 150.005C63.1899 149.104 61.9175 147.826 60.9723 146.125L57.4757 148.067C58.7705 150.398 60.5701 152.224 62.8583 153.499L64.8057 150.005ZM60.9902 146.158C60.0803 144.445 59.592 142.393 59.592 139.944H55.592C55.592 142.935 56.1917 145.651 57.4578 148.034L60.9902 146.158ZM59.592 139.944C59.592 137.539 60.0909 135.532 61.0203 133.859L57.5237 131.917C56.2131 134.276 55.592 136.973 55.592 139.944H59.592ZM61.0267 133.848C61.9718 132.12 63.2368 130.854 64.8316 129.991L62.9284 126.473C60.6192 127.722 58.8122 129.56 57.5173 131.928L61.0267 133.848ZM64.8417 129.986C66.509 129.071 68.3823 128.6 70.504 128.6V124.6C67.7617 124.6 65.219 125.217 62.9183 126.478L64.8417 129.986ZM70.504 128.6C72.6261 128.6 74.4779 129.071 76.1063 129.979L78.0537 126.485C75.7781 125.217 73.2459 124.6 70.504 124.6V128.6ZM76.1284 129.991C77.7264 130.856 78.9706 132.105 79.88 133.79L83.4 131.89C82.1334 129.543 80.3376 127.72 78.0316 126.473L76.1284 129.991ZM79.8917 133.811C80.8193 135.481 81.32 137.503 81.32 139.944H85.32C85.32 136.945 84.7007 134.231 83.3883 131.869L79.8917 133.811ZM81.32 139.944C81.32 142.384 80.8196 144.428 79.8853 146.136L83.3947 148.056C84.7004 145.668 85.32 142.944 85.32 139.944H81.32ZM79.8917 146.125C78.9512 147.818 77.6689 149.095 76.0223 149.998L77.9457 153.506C80.2671 152.233 82.0888 150.406 83.3883 148.067L79.8917 146.125ZM76.0103 150.005C74.3819 150.913 72.5301 151.384 70.408 151.384V155.384C73.1499 155.384 75.6821 154.767 77.9577 153.499L76.0103 150.005ZM70.408 153.464C72.6018 153.464 74.6743 152.978 76.5964 151.998L74.7796 148.434C73.4377 149.118 71.9902 149.464 70.408 149.464V153.464ZM76.6096 151.991C78.6353 150.939 80.2363 149.362 81.4065 147.324L77.9375 145.332C77.1237 146.75 76.0687 147.765 74.7664 148.441L76.6096 151.991ZM81.4065 147.324C82.6133 145.222 83.16 142.729 83.16 139.944H79.16C79.16 142.215 78.7147 143.978 77.9375 145.332L81.4065 147.324ZM83.16 139.944C83.16 137.186 82.6112 134.711 81.4065 132.612L77.9375 134.604C78.7168 135.961 79.16 137.71 79.16 139.944H83.16ZM81.4065 132.612C80.2389 130.578 78.6525 129.01 76.6444 127.986L74.8276 131.55C76.0835 132.19 77.1211 133.182 77.9375 134.604L81.4065 132.612ZM76.6718 128C74.7448 126.98 72.6626 126.472 70.456 126.472V130.472C72.0254 130.472 73.4632 130.828 74.8002 131.536L76.6718 128ZM70.456 126.472C68.2494 126.472 66.1672 126.98 64.2402 128L66.1118 131.536C67.4488 130.828 68.8866 130.472 70.456 130.472V126.472ZM64.2533 127.994C62.2787 129.02 60.7153 130.588 59.5535 132.612L63.0225 134.604C63.8447 133.172 64.8733 132.18 66.0987 131.542L64.2533 127.994ZM59.5535 132.612C58.3488 134.711 57.8 137.186 57.8 139.944H61.8C61.8 137.71 62.2432 135.961 63.0225 134.604L59.5535 132.612ZM57.8 139.944C57.8 142.719 58.3268 145.203 59.4917 147.299L62.9883 145.357C62.2332 143.997 61.8 142.225 61.8 139.944H57.8ZM59.5055 147.324C60.6644 149.342 62.2193 150.918 64.1777 151.976L66.0783 148.456C64.8367 147.786 63.7996 146.77 62.9745 145.332L59.5055 147.324ZM64.2196 151.998C66.1417 152.978 68.2143 153.464 70.408 153.464V149.464C68.8258 149.464 67.3783 149.118 66.0364 148.434L64.2196 151.998ZM117.81 153L116.361 154.379L116.952 155H117.81V153ZM106.434 141.048L107.882 139.669L104.434 136.046V141.048H106.434ZM106.434 153V155H108.434V153H106.434ZM104.274 153H102.274V155H104.274V153ZM104.274 117.48V115.48H102.274V117.48H104.274ZM106.434 117.48H108.434V115.48H106.434V117.48ZM106.434 138.744H104.434V143.764L107.886 140.119L106.434 138.744ZM117.618 126.936V124.936H116.757L116.165 125.561L117.618 126.936ZM120.642 126.936L122.074 128.332L125.382 124.936H120.642V126.936ZM108.018 139.896L106.585 138.5L105.225 139.896L106.585 141.292L108.018 139.896ZM120.785 153V155H125.527L122.218 151.604L120.785 153ZM119.258 151.621L107.882 139.669L104.985 142.427L116.361 154.379L119.258 151.621ZM104.434 141.048V153H108.434V141.048H104.434ZM106.434 151H104.274V155H106.434V151ZM106.274 153V117.48H102.274V153H106.274ZM104.274 119.48H106.434V115.48H104.274V119.48ZM104.434 117.48V138.744H108.434V117.48H104.434ZM107.886 140.119L119.07 128.311L116.165 125.561L104.981 137.369L107.886 140.119ZM117.618 128.936H120.642V124.936H117.618V128.936ZM119.209 125.54L106.585 138.5L109.45 141.292L122.074 128.332L119.209 125.54ZM106.585 141.292L119.353 154.396L122.218 151.604L109.45 138.5L106.585 141.292ZM120.785 151H117.81V155H120.785V151ZM141.163 151.464L140.014 153.101L140.02 153.106L140.027 153.11L141.163 151.464ZM138.091 145.992V143.992H135.893L136.1 146.18L138.091 145.992ZM140.299 145.992L142.29 145.804L142.119 143.992H140.299V145.992ZM142.603 150.024L141.433 151.646L141.442 151.653L141.451 151.659L142.603 150.024ZM153.019 150.024L154.324 151.54L154.327 151.537L153.019 150.024ZM153.835 143.784L152.352 145.126L152.385 145.163L152.42 145.198L153.835 143.784ZM151.531 142.248L150.821 144.118L151.531 142.248ZM147.739 141.096L147.223 143.029L147.235 143.032L147.739 141.096ZM143.083 139.608L142.289 141.444L142.31 141.453L142.331 141.461L143.083 139.608ZM140.059 137.352L138.526 138.637V138.637L140.059 137.352ZM139.915 130.008L141.539 131.175L141.547 131.163L141.555 131.152L139.915 130.008ZM142.987 127.512L143.828 129.327L142.987 127.512ZM154.027 128.664L152.752 130.205L152.768 130.219L152.784 130.231L154.027 128.664ZM156.763 134.28V136.28H158.872L158.76 134.173L156.763 134.28ZM154.603 134.28L152.606 134.391L152.711 136.28H154.603V134.28ZM152.587 130.056L151.272 131.564L152.587 130.056ZM142.795 129.864L141.555 128.294L142.795 129.864ZM141.979 136.344L140.473 137.661L140.503 137.694L140.533 137.726L141.979 136.344ZM144.523 138.072L143.749 139.916L143.785 139.931L143.82 139.945L144.523 138.072ZM148.555 139.32L148.035 141.251L148.046 141.254L148.555 139.32ZM152.923 140.76L152.115 142.59L152.147 142.604L152.18 142.617L152.923 140.76ZM155.755 142.776L154.236 144.078L154.248 144.091L154.26 144.105L155.755 142.776ZM152.731 152.472L151.89 150.657L152.731 152.472ZM148.315 151.384C145.691 151.384 143.735 150.809 142.298 149.818L140.027 153.11C142.302 154.679 145.115 155.384 148.315 155.384V151.384ZM142.311 149.827C141.002 148.908 140.255 147.633 140.082 145.804L136.1 146.18C136.374 149.087 137.675 151.46 140.014 153.101L142.311 149.827ZM138.091 147.992H140.299V143.992H138.091V147.992ZM138.307 146.18C138.521 148.447 139.587 150.315 141.433 151.646L143.772 148.402C142.866 147.749 142.396 146.929 142.29 145.804L138.307 146.18ZM141.451 151.659C143.305 152.965 145.66 153.512 148.315 153.512V149.512C146.17 149.512 144.716 149.067 143.755 148.389L141.451 151.659ZM148.315 153.512C150.629 153.512 152.71 152.929 154.324 151.54L151.714 148.508C151.023 149.103 149.968 149.512 148.315 149.512V153.512ZM154.327 151.537C155.919 150.16 156.795 148.373 156.795 146.28H152.795C152.795 147.131 152.487 147.84 151.71 148.511L154.327 151.537ZM156.795 146.28C156.795 144.802 156.314 143.435 155.249 142.37L152.42 145.198C152.635 145.413 152.795 145.71 152.795 146.28H156.795ZM155.318 142.442C154.478 141.514 153.435 140.831 152.24 140.378L150.821 144.118C151.482 144.369 151.976 144.71 152.352 145.126L155.318 142.442ZM152.24 140.378C151.215 139.989 149.872 139.584 148.242 139.16L147.235 143.032C148.805 143.44 149.99 143.803 150.821 144.118L152.24 140.378ZM148.254 139.164C146.375 138.663 144.911 138.191 143.834 137.755L142.331 141.461C143.622 141.985 145.262 142.505 147.223 143.028L148.254 139.164ZM143.876 137.772C142.979 137.384 142.224 136.821 141.591 136.067L138.526 138.637C139.557 139.867 140.818 140.808 142.289 141.444L143.876 137.772ZM141.591 136.067C141.139 135.527 140.811 134.699 140.811 133.368H136.811C136.811 135.365 137.315 137.193 138.526 138.637L141.591 136.067ZM140.811 133.368C140.811 132.587 141.037 131.873 141.539 131.175L138.291 128.841C137.32 130.191 136.811 131.717 136.811 133.368H140.811ZM141.555 131.152C142.065 130.421 142.796 129.804 143.828 129.327L142.146 125.697C140.553 126.436 139.236 127.483 138.274 128.864L141.555 131.152ZM143.828 129.327C144.839 128.858 146.033 128.6 147.451 128.6V124.6C145.54 124.6 143.758 124.95 142.146 125.697L143.828 129.327ZM147.451 128.6C149.829 128.6 151.532 129.196 152.752 130.205L155.301 127.123C153.194 125.38 150.512 124.6 147.451 124.6V128.6ZM152.784 130.231C153.978 131.177 154.664 132.488 154.765 134.387L158.76 134.173C158.605 131.272 157.467 128.839 155.269 127.097L152.784 130.231ZM156.763 132.28H154.603V136.28H156.763V132.28ZM156.6 134.169C156.475 131.93 155.576 130.008 153.901 128.548L151.272 131.564C152.094 132.28 152.538 133.174 152.606 134.391L156.6 134.169ZM153.901 128.548C152.182 127.05 149.931 126.424 147.403 126.424V130.424C149.291 130.424 150.495 130.886 151.272 131.564L153.901 128.548ZM147.403 126.424C145.189 126.424 143.19 127.003 141.555 128.294L144.034 131.434C144.831 130.805 145.904 130.424 147.403 130.424V126.424ZM141.555 128.294C139.928 129.579 138.971 131.297 138.971 133.368H142.971C142.971 132.687 143.23 132.069 144.034 131.434L141.555 128.294ZM138.971 133.368C138.971 134.971 139.424 136.461 140.473 137.661L143.484 135.027C143.19 134.691 142.971 134.197 142.971 133.368H138.971ZM140.533 137.726C141.438 138.672 142.518 139.4 143.749 139.916L145.296 136.228C144.543 135.912 143.927 135.488 143.424 134.962L140.533 137.726ZM143.82 139.945C144.928 140.36 146.34 140.795 148.035 141.251L149.075 137.389C147.442 136.949 146.165 136.552 145.225 136.199L143.82 139.945ZM148.046 141.254C149.819 141.721 151.163 142.17 152.115 142.59L153.73 138.93C152.506 138.39 150.938 137.879 149.064 137.386L148.046 141.254ZM152.18 142.617C153.007 142.948 153.683 143.432 154.236 144.078L157.273 141.474C156.29 140.328 155.078 139.468 153.665 138.903L152.18 142.617ZM154.26 144.105C154.621 144.511 154.907 145.16 154.907 146.28H158.907C158.907 144.456 158.424 142.769 157.249 141.447L154.26 144.105ZM154.907 146.28C154.907 147.234 154.653 148.058 154.146 148.807L157.459 151.049C158.424 149.622 158.907 148.014 158.907 146.28H154.907ZM154.146 148.807C153.634 149.564 152.906 150.186 151.89 150.657L153.572 154.287C155.179 153.542 156.499 152.468 157.459 151.049L154.146 148.807ZM151.89 150.657C150.873 151.128 149.694 151.384 148.315 151.384V155.384C150.2 155.384 151.964 155.032 153.572 154.287L151.89 150.657Z" fill="#CF5F5F"/>
</svg>
