<svg width="301" height="424" viewBox="0 0 301 424" fill="none" xmlns="http://www.w3.org/2000/svg">
<path d="M28.2789 333.579H1.1875V136.715H44.5337L66.2068 274.881L87.8799 136.715H131.226V333.579H104.135V196.316L80.6555 333.579H51.7581L28.2789 196.316V333.579Z" fill="#58A205"/>
<path d="M214.306 333.578H174.572L152.898 136.714H181.796L196.245 292.038L212.499 136.714H241.397L257.652 292.038L273.907 136.714H300.998L279.325 333.578H239.591L226.948 230.631L214.306 333.578Z" fill="#58A205"/>
<path fill-rule="evenodd" clip-rule="evenodd" d="M1.1875 423.22H10.8131L13.7007 411.019H27.1765L30.0642 423.22H39.6897L29.1016 347.98H11.7756L1.1875 423.22ZM20.4395 362.215L14.6642 400.852H26.2148L20.4395 362.215Z" fill="#151414"/>
<path fill-rule="evenodd" clip-rule="evenodd" d="M82.0391 423.22H91.6646L94.5523 411.019H108.028L110.916 423.22H120.541L109.953 347.98H92.6272L82.0391 423.22ZM95.5166 400.852H107.067L101.292 362.215L95.5166 400.852Z" fill="#151414"/>
<path fill-rule="evenodd" clip-rule="evenodd" d="M128.246 345.947V421.187H148.46C156.16 421.187 161.936 415.086 161.936 406.952V360.181C161.936 352.047 157.123 345.947 148.46 345.947H128.246ZM139.796 356.114V411.019H145.571C149.421 411.019 151.347 406.952 151.347 402.885V364.248C151.347 360.181 149.421 356.114 145.571 356.114H139.796Z" fill="#151414"/>
<path d="M199.474 345.947H168.672V421.187H199.474V409.307H179.26V389.507H195.623V377.627H179.26V356.837H199.474V345.947Z" fill="#151414"/>
<path d="M270.703 345.947H259.152L273.591 397.11V421.187H285.141V397.11L299.58 345.947H288.992L280.329 380.055L270.703 345.947Z" fill="#151414"/>
<path d="M216.801 421.187H207.176V345.947H223.539L231.24 398.818L238.94 345.947H254.341V421.187H243.753V368.315L236.052 421.187H225.464L216.801 368.315V421.187Z" fill="#151414"/>
<path fill-rule="evenodd" clip-rule="evenodd" d="M76.2632 361.84H76.1435C75.1962 354.026 68.7155 347.98 60.8618 347.98C53.0082 347.98 46.5275 354.026 45.5801 361.84H45.4614V363.7C45.4611 363.74 45.4609 363.78 45.4609 363.82C45.4609 363.86 45.4611 363.9 45.4614 363.94V407.38V407.38C45.4614 416.128 52.3566 423.22 60.8623 423.22C69.3679 423.22 76.2632 416.128 76.2632 407.38V407.38V395.5H68.5665V400.502V400.503C68.5659 406.488 65.1185 411.34 60.8661 411.34C56.6136 411.34 53.1662 406.488 53.1656 400.503V400.502V370.698V369.344H53.2251C53.6985 363.998 56.939 359.86 60.8661 359.86C64.7931 359.86 68.0336 363.998 68.507 369.344H68.5665V370.698V371.74H76.2632V361.84Z" fill="#151414"/>
<rect x="31.6523" y="18.8701" width="21.1015" height="100.012" fill="#504B4B"/>
<rect y="18.8701" width="18.8702" height="84.4062" transform="rotate(-90 0 18.8701)" fill="#504B4B"/>
<rect x="31.6523" y="18.8701" width="21.1015" height="100.012" fill="#151414"/>
<rect y="18.8701" width="18.8702" height="84.4062" transform="rotate(-90 0 18.8701)" fill="#151414"/>
<rect x="110.562" y="0.000244141" width="21.2289" height="118.882" fill="#151414"/>
<rect x="178.496" y="0.000244141" width="21.2289" height="118.882" fill="#151414"/>
<rect x="131.789" y="67.9327" width="18.8702" height="46.7035" transform="rotate(-90 131.789 67.9327)" fill="#151414"/>
<rect x="225.875" y="18.8704" width="18.8992" height="81.1417" fill="#151414"/>
<rect x="225.875" y="18.8704" width="18.8702" height="73.7068" transform="rotate(-90 225.875 18.8704)" fill="#151414"/>
<rect x="225.875" y="118.882" width="18.8702" height="73.7068" transform="rotate(-90 225.875 118.882)" fill="#151414"/>
<rect x="244.773" y="67.9329" width="18.8702" height="39.8503" transform="rotate(-90 244.773 67.9329)" fill="#151414"/>
</svg>
