<svg width="270" height="172" viewBox="0 0 270 172" fill="none" xmlns="http://www.w3.org/2000/svg">
<rect x="28" y="69" width="6" height="58" transform="rotate(-180 28 69)" fill="#44A36F"/>
<rect x="26" y="11" width="2" height="11" transform="rotate(-180 26 11)" fill="#44A36F"/>
<rect x="50" y="69" width="6" height="50" transform="rotate(90 50 69)" fill="#44A36F"/>
<path d="M61.096 51.312C61.736 49.392 62.872 47.936 64.504 46.944C66.136 45.92 68.216 45.408 70.744 45.408V47.664H70.024C67.464 47.664 65.336 48.4 63.64 49.872C61.944 51.312 61.096 53.68 61.096 56.976V72H58.936V45.936H61.096V51.312ZM88.7732 58.944C88.7732 56.256 89.3012 53.904 90.3572 51.888C91.4452 49.872 92.9332 48.32 94.8212 47.232C96.7413 46.144 98.9173 45.6 101.349 45.6C104.101 45.6 106.437 46.272 108.357 47.616C110.277 48.96 111.621 50.672 112.389 52.752V45.936H114.549V72H112.389V65.136C111.621 67.248 110.261 68.992 108.309 70.368C106.389 71.712 104.069 72.384 101.349 72.384C98.9173 72.384 96.7413 71.84 94.8212 70.752C92.9332 69.632 91.4452 68.064 90.3572 66.048C89.3012 64 88.7732 61.632 88.7732 58.944ZM112.389 58.944C112.389 56.672 111.909 54.672 110.949 52.944C110.021 51.184 108.741 49.84 107.109 48.912C105.477 47.952 103.653 47.472 101.637 47.472C99.5253 47.472 97.6693 47.936 96.0693 48.864C94.4692 49.76 93.2212 51.072 92.3252 52.8C91.4292 54.528 90.9812 56.576 90.9812 58.944C90.9812 61.312 91.4292 63.36 92.3252 65.088C93.2212 66.816 94.4692 68.144 96.0693 69.072C97.7012 70 99.5573 70.464 101.637 70.464C103.653 70.464 105.477 70 107.109 69.072C108.773 68.112 110.069 66.768 110.997 65.04C111.925 63.28 112.389 61.248 112.389 58.944ZM135.47 58.944C135.47 56.256 135.998 53.904 137.054 51.888C138.142 49.872 139.63 48.32 141.518 47.232C143.438 46.144 145.614 45.6 148.046 45.6C150.702 45.6 153.006 46.272 154.958 47.616C156.91 48.928 158.286 50.64 159.086 52.752V36.48H161.246V72H159.086V65.088C158.318 67.232 156.974 68.992 155.054 70.368C153.134 71.712 150.798 72.384 148.046 72.384C145.614 72.384 143.438 71.84 141.518 70.752C139.63 69.632 138.142 68.064 137.054 66.048C135.998 64 135.47 61.632 135.47 58.944ZM159.086 58.944C159.086 56.672 158.606 54.672 157.646 52.944C156.718 51.184 155.438 49.84 153.806 48.912C152.174 47.952 150.35 47.472 148.334 47.472C146.222 47.472 144.366 47.936 142.766 48.864C141.166 49.76 139.918 51.072 139.022 52.8C138.126 54.528 137.678 56.576 137.678 58.944C137.678 61.312 138.126 63.36 139.022 65.088C139.918 66.816 141.166 68.144 142.766 69.072C144.398 70 146.254 70.464 148.334 70.464C150.35 70.464 152.174 70 153.806 69.072C155.47 68.112 156.766 66.768 157.694 65.04C158.622 63.28 159.086 61.248 159.086 58.944ZM206.983 57.216C206.983 58.368 206.951 59.232 206.887 59.808H184.375C184.439 62.144 184.951 64.112 185.911 65.712C186.871 67.312 188.135 68.512 189.703 69.312C191.271 70.112 192.983 70.512 194.839 70.512C197.399 70.512 199.543 69.888 201.271 68.64C202.999 67.36 204.087 65.632 204.535 63.456H206.791C206.279 66.112 204.967 68.272 202.855 69.936C200.743 71.568 198.071 72.384 194.839 72.384C192.407 72.384 190.231 71.84 188.311 70.752C186.391 69.664 184.887 68.112 183.799 66.096C182.711 64.048 182.167 61.664 182.167 58.944C182.167 56.224 182.695 53.856 183.751 51.84C184.839 49.824 186.343 48.288 188.263 47.232C190.183 46.144 192.375 45.6 194.839 45.6C197.335 45.6 199.495 46.144 201.319 47.232C203.175 48.288 204.583 49.712 205.543 51.504C206.503 53.264 206.983 55.168 206.983 57.216ZM204.823 58.032C204.919 55.728 204.503 53.776 203.575 52.176C202.679 50.576 201.447 49.392 199.879 48.624C198.311 47.824 196.615 47.424 194.791 47.424C192.967 47.424 191.271 47.824 189.703 48.624C188.167 49.392 186.903 50.576 185.911 52.176C184.951 53.776 184.439 55.728 184.375 58.032H204.823ZM230.071 51.312C230.711 49.392 231.847 47.936 233.479 46.944C235.111 45.92 237.191 45.408 239.719 45.408V47.664H238.999C236.439 47.664 234.311 48.4 232.615 49.872C230.919 51.312 230.071 53.68 230.071 56.976V72H227.911V45.936H230.071V51.312Z" fill="#44A36F"/>
<path d="M61.096 51.312H59.096L62.9934 51.9445L61.096 51.312ZM64.504 46.944L65.5428 48.653L65.555 48.6457L65.567 48.6381L64.504 46.944ZM70.744 45.408H72.744V43.408H70.744V45.408ZM70.744 47.664V49.664H72.744V47.664H70.744ZM63.64 49.872L64.9345 51.3966L64.9427 51.3896L64.9509 51.3824L63.64 49.872ZM61.096 72V74H63.096V72H61.096ZM58.936 72H56.936V74H58.936V72ZM58.936 45.936V43.936H56.936V45.936H58.936ZM61.096 45.936H63.096V43.936H61.096V45.936ZM62.9934 51.9445C63.4933 50.4446 64.3408 49.3837 65.5428 48.653L63.4652 45.235C61.4032 46.4883 59.9787 48.3394 59.1986 50.6795L62.9934 51.9445ZM65.567 48.6381C66.7954 47.8674 68.4771 47.408 70.744 47.408V43.408C67.9549 43.408 65.4766 43.9726 63.441 45.2499L65.567 48.6381ZM68.744 45.408V47.664H72.744V45.408H68.744ZM70.744 45.664H70.024V49.664H70.744V45.664ZM70.024 45.664C67.0541 45.664 64.4396 46.5298 62.3291 48.3616L64.9509 51.3824C66.2324 50.2702 67.8739 49.664 70.024 49.664V45.664ZM62.3455 48.3474C60.0211 50.321 59.096 53.3811 59.096 56.976H63.096C63.096 53.9789 63.8669 52.303 64.9345 51.3966L62.3455 48.3474ZM59.096 56.976V72H63.096V56.976H59.096ZM61.096 70H58.936V74H61.096V70ZM60.936 72V45.936H56.936V72H60.936ZM58.936 47.936H61.096V43.936H58.936V47.936ZM59.096 45.936V51.312H63.096V45.936H59.096ZM90.3573 51.888L88.5972 50.9381L88.5913 50.949L88.5856 50.96L90.3573 51.888ZM94.8213 47.232L93.8352 45.492L93.8289 45.4955L93.8227 45.4991L94.8213 47.232ZM112.389 52.752L110.513 53.4447L114.389 52.752H112.389ZM112.389 45.936V43.936H110.389V45.936H112.389ZM114.549 45.936H116.549V43.936H114.549V45.936ZM114.549 72V74H116.549V72H114.549ZM112.389 72H110.389V74H112.389V72ZM112.389 65.136H114.389L110.51 64.4525L112.389 65.136ZM108.309 70.368L109.456 72.0065L109.462 72.0027L108.309 70.368ZM94.8213 70.752L93.8008 72.4721L93.8179 72.4822L93.8352 72.492L94.8213 70.752ZM90.3573 66.048L88.5796 66.9646L88.5883 66.9813L88.5972 66.9979L90.3573 66.048ZM110.949 52.944L109.18 53.8768L109.19 53.8962L109.201 53.9153L110.949 52.944ZM107.109 48.912L106.095 50.6359L106.108 50.6433L106.121 50.6506L107.109 48.912ZM96.0693 48.864L97.0465 50.609L97.0596 50.6016L97.0727 50.5941L96.0693 48.864ZM92.3252 52.8L94.1008 53.7206L92.3252 52.8ZM92.3252 65.088L94.1008 64.1674L92.3252 65.088ZM96.0693 69.072L95.0658 70.8021L95.0732 70.8064L95.0806 70.8106L96.0693 69.072ZM107.109 69.072L108.098 70.8106L108.109 70.8044L107.109 69.072ZM110.997 65.04L112.759 65.9863L112.763 65.9795L112.766 65.9728L110.997 65.04ZM90.7733 58.944C90.7733 56.5208 91.2478 54.498 92.1289 52.816L88.5856 50.96C87.3547 53.31 86.7733 55.9912 86.7733 58.944H90.7733ZM92.1173 52.8379C93.0385 51.1309 94.2702 49.8579 95.8198 48.9649L93.8227 45.4991C91.5963 46.7821 89.852 48.6131 88.5972 50.9381L92.1173 52.8379ZM95.8073 48.972C97.3966 48.0714 99.2267 47.6 101.349 47.6V43.6C98.6078 43.6 96.0859 44.2166 93.8352 45.492L95.8073 48.972ZM101.349 47.6C103.764 47.6 105.682 48.1846 107.21 49.2545L109.504 45.9775C107.192 44.3594 104.438 43.6 101.349 43.6V47.6ZM107.21 49.2545C108.817 50.3789 109.894 51.7693 110.513 53.4447L114.265 52.0592C113.348 49.5747 111.738 47.5411 109.504 45.9775L107.21 49.2545ZM114.389 52.752V45.936H110.389V52.752H114.389ZM112.389 47.936H114.549V43.936H112.389V47.936ZM112.549 45.936V72H116.549V45.936H112.549ZM114.549 70H112.389V74H114.549V70ZM114.389 72V65.136H110.389V72H114.389ZM110.51 64.4525C109.89 66.1559 108.797 67.5771 107.157 68.7333L109.462 72.0027C111.725 70.4069 113.352 68.34 114.269 65.8195L110.51 64.4525ZM107.162 68.7295C105.63 69.8021 103.727 70.384 101.349 70.384V74.384C104.412 74.384 107.148 73.6219 109.456 72.0065L107.162 68.7295ZM101.349 70.384C99.2267 70.384 97.3966 69.9126 95.8073 69.012L93.8352 72.492C96.0859 73.7674 98.6078 74.384 101.349 74.384V70.384ZM95.8417 69.0319C94.2794 68.1051 93.041 66.8096 92.1173 65.0981L88.5972 66.9979C89.8495 69.3184 91.5871 71.1589 93.8008 72.4721L95.8417 69.0319ZM92.1349 65.1314C91.2476 63.4106 90.7733 61.3663 90.7733 58.944H86.7733C86.7733 61.8977 87.3549 64.5894 88.5796 66.9646L92.1349 65.1314ZM114.389 58.944C114.389 56.3834 113.846 54.0397 112.698 51.9727L109.201 53.9153C109.973 55.3043 110.389 56.9606 110.389 58.944H114.389ZM112.718 52.0112C111.624 49.9348 110.082 48.3015 108.098 47.1734L106.121 50.6506C107.401 51.3785 108.419 52.4332 109.18 53.8768L112.718 52.0112ZM108.123 47.1881C106.164 46.0356 103.986 45.472 101.637 45.472V49.472C103.321 49.472 104.791 49.8684 106.095 50.6359L108.123 47.1881ZM101.637 45.472C99.2236 45.472 97.0118 46.0053 95.0658 47.1339L97.0727 50.5941C98.3267 49.8667 99.8269 49.472 101.637 49.472V45.472ZM95.092 47.119C93.1298 48.2179 91.614 49.8269 90.5497 51.8794L94.1008 53.7206C94.8285 52.3171 95.8087 51.3021 97.0465 50.609L95.092 47.119ZM90.5497 51.8794C89.4776 53.947 88.9813 56.3241 88.9813 58.944H92.9813C92.9813 56.8279 93.3809 55.109 94.1008 53.7206L90.5497 51.8794ZM88.9813 58.944C88.9813 61.5639 89.4776 63.941 90.5497 66.0086L94.1008 64.1674C93.3809 62.779 92.9813 61.0601 92.9813 58.944H88.9813ZM90.5497 66.0086C91.6113 68.0558 93.1191 69.673 95.0658 70.8021L97.0727 67.3419C95.8194 66.615 94.8312 65.5762 94.1008 64.1674L90.5497 66.0086ZM95.0806 70.8106C97.0456 71.9279 99.2489 72.464 101.637 72.464V68.464C99.8656 68.464 98.3569 68.0721 97.0579 67.3334L95.0806 70.8106ZM101.637 72.464C103.973 72.464 106.142 71.9225 108.098 70.8106L106.121 67.3334C104.812 68.0775 103.333 68.464 101.637 68.464V72.464ZM108.109 70.8044C110.102 69.6543 111.659 68.0349 112.759 65.9863L109.235 64.0937C108.479 65.5011 107.444 66.5697 106.11 67.3396L108.109 70.8044ZM112.766 65.9728C113.868 63.8829 114.389 61.5215 114.389 58.944H110.389C110.389 60.9745 109.982 62.6771 109.228 64.1072L112.766 65.9728ZM137.054 51.888L135.294 50.9381L135.288 50.949L135.282 50.96L137.054 51.888ZM141.518 47.232L140.532 45.492L140.526 45.4955L140.52 45.4991L141.518 47.232ZM154.958 47.616L153.824 49.2633L153.833 49.2696L153.842 49.2759L154.958 47.616ZM159.086 52.752L157.216 53.4605L161.086 52.752H159.086ZM159.086 36.48V34.48H157.086V36.48H159.086ZM161.246 36.48H163.246V34.48H161.246V36.48ZM161.246 72V74H163.246V72H161.246ZM159.086 72H157.086V74H159.086V72ZM159.086 65.088H161.086L157.203 64.4135L159.086 65.088ZM155.054 70.368L156.201 72.0065L156.21 72.0001L156.219 71.9936L155.054 70.368ZM141.518 70.752L140.498 72.4721L140.515 72.4822L140.532 72.492L141.518 70.752ZM137.054 66.048L135.277 66.9646L135.285 66.9813L135.294 66.9979L137.054 66.048ZM157.646 52.944L155.877 53.8768L155.887 53.8962L155.898 53.9153L157.646 52.944ZM153.806 48.912L152.792 50.6359L152.805 50.6433L152.818 50.6506L153.806 48.912ZM142.766 48.864L143.743 50.609L143.757 50.6016L143.77 50.5941L142.766 48.864ZM139.022 52.8L140.798 53.7206L139.022 52.8ZM139.022 65.088L140.798 64.1674L139.022 65.088ZM142.766 69.072L141.763 70.8021L141.77 70.8064L141.778 70.8106L142.766 69.072ZM153.806 69.072L154.795 70.8106L154.806 70.8044L153.806 69.072ZM157.694 65.04L159.456 65.9863L159.46 65.9795L159.463 65.9728L157.694 65.04ZM137.47 58.944C137.47 56.5208 137.945 54.498 138.826 52.816L135.282 50.96C134.052 53.31 133.47 55.9912 133.47 58.944H137.47ZM138.814 52.8379C139.735 51.1309 140.967 49.8579 142.517 48.9649L140.52 45.4991C138.293 46.7821 136.549 48.6131 135.294 50.9381L138.814 52.8379ZM142.504 48.972C144.094 48.0714 145.924 47.6 148.046 47.6V43.6C145.305 43.6 142.783 44.2166 140.532 45.492L142.504 48.972ZM148.046 47.6C150.348 47.6 152.245 48.1762 153.824 49.2633L156.092 45.9687C153.767 44.3678 151.056 43.6 148.046 43.6V47.6ZM153.842 49.2759C155.466 50.3668 156.569 51.7529 157.216 53.4605L160.956 52.0435C160.003 49.5271 158.355 47.4892 156.074 45.9561L153.842 49.2759ZM161.086 52.752V36.48H157.086V52.752H161.086ZM159.086 38.48H161.246V34.48H159.086V38.48ZM159.246 36.48V72H163.246V36.48H159.246ZM161.246 70H159.086V74H161.246V70ZM161.086 72V65.088H157.086V72H161.086ZM157.203 64.4135C156.578 66.1601 155.492 67.5938 153.889 68.7424L156.219 71.9936C158.456 70.3902 160.059 68.3039 160.969 65.7625L157.203 64.4135ZM153.907 68.7295C152.379 69.7994 150.461 70.384 148.046 70.384V74.384C151.135 74.384 153.889 73.6246 156.201 72.0065L153.907 68.7295ZM148.046 70.384C145.924 70.384 144.094 69.9126 142.504 69.012L140.532 72.492C142.783 73.7674 145.305 74.384 148.046 74.384V70.384ZM142.539 69.0319C140.976 68.1051 139.738 66.8096 138.814 65.0981L135.294 66.9979C136.546 69.3184 138.284 71.1589 140.498 72.4721L142.539 69.0319ZM138.832 65.1314C137.944 63.4106 137.47 61.3663 137.47 58.944H133.47C133.47 61.8977 134.052 64.5894 135.277 66.9646L138.832 65.1314ZM161.086 58.944C161.086 56.3834 160.543 54.0397 159.394 51.9727L155.898 53.9153C156.67 55.3043 157.086 56.9606 157.086 58.944H161.086ZM159.415 52.0112C158.32 49.9348 156.779 48.3015 154.795 47.1734L152.818 50.6506C154.098 51.3785 155.116 52.4332 155.877 53.8768L159.415 52.0112ZM154.82 47.1881C152.861 46.0356 150.683 45.472 148.334 45.472V49.472C150.018 49.472 151.487 49.8684 152.792 50.6359L154.82 47.1881ZM148.334 45.472C145.921 45.472 143.709 46.0053 141.763 47.1339L143.77 50.5941C145.024 49.8667 146.524 49.472 148.334 49.472V45.472ZM141.789 47.119C139.827 48.2179 138.311 49.8269 137.247 51.8794L140.798 53.7206C141.525 52.3171 142.506 51.3021 143.743 50.609L141.789 47.119ZM137.247 51.8794C136.174 53.947 135.678 56.3241 135.678 58.944H139.678C139.678 56.8279 140.078 55.109 140.798 53.7206L137.247 51.8794ZM135.678 58.944C135.678 61.5639 136.174 63.941 137.247 66.0086L140.798 64.1674C140.078 62.779 139.678 61.0601 139.678 58.944H135.678ZM137.247 66.0086C138.308 68.0558 139.816 69.673 141.763 70.8021L143.77 67.3419C142.516 66.615 141.528 65.5762 140.798 64.1674L137.247 66.0086ZM141.778 70.8106C143.742 71.9279 145.946 72.464 148.334 72.464V68.464C146.562 68.464 145.054 68.0721 143.755 67.3334L141.778 70.8106ZM148.334 72.464C150.67 72.464 152.839 71.9225 154.795 70.8106L152.818 67.3334C151.509 68.0775 150.03 68.464 148.334 68.464V72.464ZM154.806 70.8044C156.799 69.6543 158.356 68.0349 159.456 65.9863L155.932 64.0937C155.176 65.5011 154.141 66.5697 152.807 67.3396L154.806 70.8044ZM159.463 65.9728C160.565 63.8829 161.086 61.5215 161.086 58.944H157.086C157.086 60.9745 156.679 62.6771 155.925 64.1072L159.463 65.9728ZM206.887 59.808V61.808H208.677L208.875 60.0289L206.887 59.808ZM184.375 59.808V57.808H182.319L182.376 59.8628L184.375 59.808ZM185.911 65.712L187.626 64.683L185.911 65.712ZM189.703 69.312L190.612 67.5305L189.703 69.312ZM201.271 68.64L202.442 70.2614L202.452 70.2543L202.461 70.2471L201.271 68.64ZM204.535 63.456V61.456H202.905L202.576 63.0527L204.535 63.456ZM206.791 63.456L208.755 63.8346L209.213 61.456H206.791V63.456ZM202.855 69.936L204.078 71.5186L204.085 71.5128L204.093 71.507L202.855 69.936ZM188.311 70.752L187.325 72.492L188.311 70.752ZM183.799 66.096L182.033 67.0343L182.039 67.0459L183.799 66.096ZM183.751 51.84L181.991 50.8901L181.985 50.901L181.979 50.912L183.751 51.84ZM188.263 47.232L189.227 48.9844L189.238 48.9783L189.249 48.972L188.263 47.232ZM201.319 47.232L200.294 48.9496L200.312 48.9602L200.33 48.9703L201.319 47.232ZM205.543 51.504L203.78 52.4484L203.784 52.4551L203.787 52.4617L205.543 51.504ZM204.823 58.032V60.032H206.741L206.821 58.1153L204.823 58.032ZM203.575 52.176L201.83 53.1532L201.837 53.1664L201.845 53.1794L203.575 52.176ZM199.879 48.624L198.97 50.4055L198.985 50.4129L198.999 50.4201L199.879 48.624ZM189.703 48.624L190.597 50.4129L190.605 50.4092L190.612 50.4055L189.703 48.624ZM185.911 52.176L184.211 51.1221L184.204 51.1345L184.196 51.147L185.911 52.176ZM184.375 58.032L182.376 57.9765L182.319 60.032H184.375V58.032ZM204.983 57.216C204.983 58.3512 204.951 59.125 204.899 59.5871L208.875 60.0289C208.951 59.339 208.983 58.3848 208.983 57.216H204.983ZM206.887 57.808H184.375V61.808H206.887V57.808ZM182.376 59.8628C182.447 62.4571 183.02 64.7805 184.196 66.741L187.626 64.683C186.882 63.4435 186.431 61.831 186.374 59.7532L182.376 59.8628ZM184.196 66.741C185.337 68.6423 186.872 70.1128 188.794 71.0935L190.612 67.5305C189.398 66.9112 188.405 65.9817 187.626 64.683L184.196 66.741ZM188.794 71.0935C190.659 72.045 192.685 72.512 194.839 72.512V68.512C193.281 68.512 191.883 68.179 190.612 67.5305L188.794 71.0935ZM194.839 72.512C197.733 72.512 200.309 71.8017 202.442 70.2614L200.1 67.0186C198.777 67.9743 197.065 68.512 194.839 68.512V72.512ZM202.461 70.2471C204.599 68.6636 205.95 66.4999 206.494 63.8593L202.576 63.0527C202.224 64.7641 201.399 66.0564 200.081 67.0329L202.461 70.2471ZM204.535 65.456H206.791V61.456H204.535V65.456ZM204.827 63.0774C204.406 65.2648 203.349 67.0003 201.617 68.365L204.093 71.507C206.585 69.5437 208.152 66.9592 208.755 63.8346L204.827 63.0774ZM201.632 68.3534C199.939 69.6614 197.724 70.384 194.839 70.384V74.384C198.418 74.384 201.547 73.4746 204.078 71.5186L201.632 68.3534ZM194.839 70.384C192.716 70.384 190.886 69.9126 189.297 69.012L187.325 72.492C189.576 73.7674 192.098 74.384 194.839 74.384V70.384ZM189.297 69.012C187.717 68.1166 186.476 66.8445 185.559 65.1461L182.039 67.0459C183.298 69.3795 185.065 71.2114 187.325 72.492L189.297 69.012ZM185.565 65.1577C184.655 63.4448 184.167 61.3934 184.167 58.944H180.167C180.167 61.9346 180.767 64.6512 182.033 67.0343L185.565 65.1577ZM184.167 58.944C184.167 56.4845 184.643 54.4468 185.523 52.768L181.979 50.912C180.747 53.2652 180.167 55.9635 180.167 58.944H184.167ZM185.511 52.7899C186.425 51.0962 187.66 49.8464 189.227 48.9844L187.299 45.4796C185.026 46.7296 183.253 48.5518 181.991 50.8901L185.511 52.7899ZM189.249 48.972C190.834 48.0736 192.679 47.6 194.839 47.6V43.6C192.071 43.6 189.532 44.2144 187.277 45.492L189.249 48.972ZM194.839 47.6C197.038 47.6 198.831 48.0766 200.294 48.9496L202.344 45.5144C200.159 44.2114 197.632 43.6 194.839 43.6V47.6ZM200.33 48.9703C201.876 49.8498 203.007 51.0058 203.78 52.4484L207.306 50.5596C206.159 48.4182 204.474 46.7262 202.308 45.4937L200.33 48.9703ZM203.787 52.4617C204.583 53.9214 204.983 55.4951 204.983 57.216H208.983C208.983 54.8409 208.423 52.6066 207.299 50.5463L203.787 52.4617ZM206.821 58.1153C206.929 55.5245 206.466 53.1745 205.305 51.1726L201.845 53.1794C202.54 54.3775 202.909 55.9315 202.825 57.9487L206.821 58.1153ZM205.32 51.1988C204.236 49.2631 202.711 47.7839 200.759 46.8279L198.999 50.4201C200.183 51.0001 201.122 51.8889 201.83 53.1532L205.32 51.1988ZM200.788 46.8425C198.928 45.8936 196.919 45.424 194.791 45.424V49.424C196.311 49.424 197.694 49.7544 198.97 50.4055L200.788 46.8425ZM194.791 45.424C192.663 45.424 190.654 45.8936 188.794 46.8425L190.612 50.4055C191.888 49.7544 193.271 49.424 194.791 49.424V45.424ZM188.809 46.8351C186.91 47.7846 185.379 49.2386 184.211 51.1221L187.611 53.2299C188.427 51.9134 189.424 50.9994 190.597 50.4129L188.809 46.8351ZM184.196 51.147C183.022 53.1034 182.447 55.4089 182.376 57.9765L186.374 58.0875C186.431 56.0471 186.88 54.4486 187.626 53.205L184.196 51.147ZM184.375 60.032H204.823V56.032H184.375V60.032ZM230.071 51.312H228.071L231.968 51.9445L230.071 51.312ZM233.479 46.944L234.518 48.653L234.53 48.6457L234.542 48.6381L233.479 46.944ZM239.719 45.408H241.719V43.408H239.719V45.408ZM239.719 47.664V49.664H241.719V47.664H239.719ZM232.615 49.872L233.909 51.3966L233.918 51.3896L233.926 51.3824L232.615 49.872ZM230.071 72V74H232.071V72H230.071ZM227.911 72H225.911V74H227.911V72ZM227.911 45.936V43.936H225.911V45.936H227.911ZM230.071 45.936H232.071V43.936H230.071V45.936ZM231.968 51.9445C232.468 50.4446 233.316 49.3837 234.518 48.653L232.44 45.235C230.378 46.4883 228.954 48.3394 228.174 50.6795L231.968 51.9445ZM234.542 48.6381C235.77 47.8674 237.452 47.408 239.719 47.408V43.408C236.93 43.408 234.452 43.9726 232.416 45.2499L234.542 48.6381ZM237.719 45.408V47.664H241.719V45.408H237.719ZM239.719 45.664H238.999V49.664H239.719V45.664ZM238.999 45.664C236.029 45.664 233.415 46.5298 231.304 48.3616L233.926 51.3824C235.207 50.2702 236.849 49.664 238.999 49.664V45.664ZM231.321 48.3474C228.996 50.321 228.071 53.3811 228.071 56.976H232.071C232.071 53.9789 232.842 52.303 233.909 51.3966L231.321 48.3474ZM228.071 56.976V72H232.071V56.976H228.071ZM230.071 70H227.911V74H230.071V70ZM229.911 72V45.936H225.911V72H229.911ZM227.911 47.936H230.071V43.936H227.911V47.936ZM228.071 45.936V51.312H232.071V45.936H228.071Z" fill="#44A36F"/>
<path d="M2.592 136.2C2.592 132.872 3.28 129.912 4.656 127.32C6.064 124.696 7.984 122.648 10.416 121.176C12.88 119.704 15.632 118.968 18.672 118.968C22.512 118.968 25.744 119.864 28.368 121.656C30.992 123.448 32.912 125.96 34.128 129.192H31.632C30.672 126.632 29.072 124.616 26.832 123.144C24.624 121.64 21.904 120.888 18.672 120.888C16.08 120.888 13.728 121.512 11.616 122.76C9.504 123.976 7.84 125.752 6.624 128.088C5.408 130.392 4.8 133.096 4.8 136.2C4.8 139.272 5.408 141.96 6.624 144.264C7.84 146.536 9.504 148.296 11.616 149.544C13.728 150.792 16.08 151.416 18.672 151.416C21.904 151.416 24.624 150.68 26.832 149.208C29.072 147.704 30.672 145.672 31.632 143.112H34.128C32.912 146.344 30.992 148.856 28.368 150.648C25.744 152.44 22.512 153.336 18.672 153.336C15.632 153.336 12.88 152.616 10.416 151.176C7.984 149.704 6.064 147.672 4.656 145.08C3.28 142.456 2.592 139.496 2.592 136.2ZM66.7455 153.384C64.3135 153.384 62.1215 152.84 60.1695 151.752C58.2175 150.664 56.6815 149.112 55.5615 147.096C54.4735 145.048 53.9295 142.664 53.9295 139.944C53.9295 137.256 54.4895 134.904 55.6095 132.888C56.7295 130.84 58.2655 129.288 60.2175 128.232C62.2015 127.144 64.4095 126.6 66.8415 126.6C69.2735 126.6 71.4655 127.144 73.4175 128.232C75.3695 129.288 76.8895 130.824 77.9775 132.84C79.0975 134.856 79.6575 137.224 79.6575 139.944C79.6575 142.664 79.0975 145.048 77.9775 147.096C76.8575 149.112 75.3055 150.664 73.3215 151.752C71.3695 152.84 69.1775 153.384 66.7455 153.384ZM66.7455 151.464C68.6335 151.464 70.3935 151.048 72.0255 150.216C73.6895 149.352 75.0175 148.056 76.0095 146.328C77.0015 144.6 77.4975 142.472 77.4975 139.944C77.4975 137.448 77.0015 135.336 76.0095 133.608C75.0175 131.88 73.7055 130.6 72.0735 129.768C70.4415 128.904 68.6815 128.472 66.7935 128.472C64.9055 128.472 63.1455 128.904 61.5135 129.768C59.9135 130.6 58.6175 131.88 57.6255 133.608C56.6335 135.336 56.1375 137.448 56.1375 139.944C56.1375 142.472 56.6175 144.6 57.5775 146.328C58.5695 148.056 59.8655 149.352 61.4655 150.216C63.0975 151.048 64.8575 151.464 66.7455 151.464ZM122.643 126.936V153H120.483V147.336C119.747 149.32 118.515 150.84 116.787 151.896C115.091 152.92 113.139 153.432 110.931 153.432C107.827 153.432 105.283 152.488 103.299 150.6C101.347 148.68 100.371 145.848 100.371 142.104V126.936H102.483V141.96C102.483 145.064 103.267 147.448 104.835 149.112C106.403 150.744 108.531 151.56 111.219 151.56C114.035 151.56 116.275 150.664 117.939 148.872C119.635 147.08 120.483 144.424 120.483 140.904V126.936H122.643ZM147.077 132.312C147.717 130.392 148.853 128.936 150.485 127.944C152.117 126.92 154.197 126.408 156.725 126.408V128.664H156.005C153.445 128.664 151.317 129.4 149.621 130.872C147.925 132.312 147.077 134.68 147.077 137.976V153H144.917V126.936H147.077V132.312ZM184.787 153.384C181.875 153.384 179.491 152.744 177.635 151.464C175.811 150.184 174.787 148.36 174.563 145.992H176.771C176.931 147.688 177.699 149.032 179.075 150.024C180.483 151.016 182.387 151.512 184.787 151.512C186.771 151.512 188.339 151.016 189.491 150.024C190.675 149 191.267 147.752 191.267 146.28C191.267 145.256 190.947 144.424 190.307 143.784C189.699 143.112 188.931 142.6 188.003 142.248C187.075 141.896 185.811 141.512 184.211 141.096C182.291 140.584 180.739 140.088 179.555 139.608C178.371 139.096 177.363 138.344 176.531 137.352C175.699 136.36 175.283 135.032 175.283 133.368C175.283 132.152 175.651 131.032 176.387 130.008C177.123 128.952 178.147 128.12 179.459 127.512C180.771 126.904 182.259 126.6 183.923 126.6C186.643 126.6 188.835 127.288 190.499 128.664C192.195 130.008 193.107 131.88 193.235 134.28H191.075C190.979 132.552 190.307 131.144 189.059 130.056C187.811 128.968 186.083 128.424 183.875 128.424C182.019 128.424 180.483 128.904 179.267 129.864C178.051 130.824 177.443 131.992 177.443 133.368C177.443 134.584 177.779 135.576 178.451 136.344C179.155 137.08 180.003 137.656 180.995 138.072C182.019 138.456 183.363 138.872 185.027 139.32C186.851 139.8 188.307 140.28 189.395 140.76C190.515 141.208 191.459 141.88 192.227 142.776C192.995 143.64 193.379 144.808 193.379 146.28C193.379 147.624 193.011 148.84 192.275 149.928C191.539 151.016 190.515 151.864 189.203 152.472C187.891 153.08 186.419 153.384 184.787 153.384ZM237.83 138.216C237.83 139.368 237.798 140.232 237.734 140.808H215.222C215.286 143.144 215.798 145.112 216.758 146.712C217.718 148.312 218.982 149.512 220.55 150.312C222.118 151.112 223.83 151.512 225.686 151.512C228.246 151.512 230.39 150.888 232.118 149.64C233.846 148.36 234.934 146.632 235.382 144.456H237.638C237.126 147.112 235.814 149.272 233.702 150.936C231.59 152.568 228.918 153.384 225.686 153.384C223.254 153.384 221.078 152.84 219.158 151.752C217.238 150.664 215.734 149.112 214.646 147.096C213.558 145.048 213.014 142.664 213.014 139.944C213.014 137.224 213.542 134.856 214.598 132.84C215.686 130.824 217.19 129.288 219.11 128.232C221.03 127.144 223.222 126.6 225.686 126.6C228.182 126.6 230.342 127.144 232.166 128.232C234.022 129.288 235.43 130.712 236.39 132.504C237.35 134.264 237.83 136.168 237.83 138.216ZM235.67 139.032C235.766 136.728 235.35 134.776 234.422 133.176C233.526 131.576 232.294 130.392 230.726 129.624C229.158 128.824 227.462 128.424 225.638 128.424C223.814 128.424 222.118 128.824 220.55 129.624C219.014 130.392 217.75 131.576 216.758 133.176C215.798 134.776 215.286 136.728 215.222 139.032H235.67Z" fill="#CF5F5F"/>
<path d="M4.656 127.32L2.89366 126.374L2.88949 126.382L4.656 127.32ZM10.416 121.176L9.39027 119.459L9.38039 119.465L10.416 121.176ZM28.368 121.656L29.4959 120.004V120.004L28.368 121.656ZM34.128 129.192V131.192H37.0173L35.9999 128.488L34.128 129.192ZM31.632 129.192L29.7593 129.894L30.246 131.192H31.632V129.192ZM26.832 123.144L25.7061 124.797L25.7198 124.806L25.7336 124.815L26.832 123.144ZM11.616 122.76L12.6139 124.493L12.6237 124.488L12.6335 124.482L11.616 122.76ZM6.624 128.088L8.3928 129.022L8.39804 129.011L6.624 128.088ZM6.624 144.264L4.8552 145.198L4.86067 145.208L6.624 144.264ZM11.616 149.544L10.5985 151.266L11.616 149.544ZM26.832 149.208L27.9414 150.872L27.9469 150.868L26.832 149.208ZM31.632 143.112V141.112H30.246L29.7593 142.41L31.632 143.112ZM34.128 143.112L35.9999 143.816L37.0173 141.112H34.128V143.112ZM28.368 150.648L27.2401 148.996L28.368 150.648ZM10.416 151.176L9.38039 152.887L9.39357 152.895L9.40686 152.903L10.416 151.176ZM4.656 145.08L2.88476 146.009L2.89156 146.022L2.89855 146.035L4.656 145.08ZM4.592 136.2C4.592 133.155 5.21935 130.524 6.42251 128.258L2.88949 126.382C1.34065 129.3 0.592 132.589 0.592 136.2H4.592ZM6.41832 128.266C7.66538 125.942 9.34085 124.165 11.4516 122.887L9.38039 119.465C6.62715 121.131 4.46262 123.45 2.89368 126.374L6.41832 128.266ZM11.4417 122.893C13.5771 121.617 15.9709 120.968 18.672 120.968V116.968C15.2931 116.968 12.1829 117.791 9.39029 119.459L11.4417 122.893ZM18.672 120.968C22.1947 120.968 25.0124 121.786 27.2401 123.308L29.4959 120.004C26.4756 117.942 22.8293 116.968 18.672 116.968V120.968ZM27.2401 123.308C29.4949 124.848 31.1717 127.014 32.2561 129.896L35.9999 128.488C34.6523 124.906 32.4891 122.048 29.4959 120.004L27.2401 123.308ZM34.128 127.192H31.632V131.192H34.128V127.192ZM33.5047 128.49C32.399 125.541 30.5322 123.182 27.9304 121.473L25.7336 124.815C27.6118 126.05 28.945 127.723 29.7593 129.894L33.5047 128.49ZM27.9579 121.491C25.3537 119.717 22.2202 118.888 18.672 118.888V122.888C21.5878 122.888 23.8943 123.563 25.7061 124.797L27.9579 121.491ZM18.672 118.888C15.7432 118.888 13.0364 119.598 10.5985 121.038L12.6335 124.482C14.4196 123.426 16.4169 122.888 18.672 122.888V118.888ZM10.6181 121.027C8.1487 122.449 6.22733 124.519 4.84997 127.165L8.39804 129.011C9.45267 126.985 10.8593 125.503 12.6139 124.493L10.6181 121.027ZM4.85523 127.154C3.46084 129.796 2.8 132.833 2.8 136.2H6.8C6.8 133.359 7.35516 130.988 8.39277 129.022L4.85523 127.154ZM2.8 136.2C2.8 139.539 3.46233 142.558 4.85523 145.198L8.39277 143.33C7.35367 141.362 6.8 139.005 6.8 136.2H2.8ZM4.86067 145.208C6.2403 147.785 8.15518 149.822 10.5985 151.266L12.6335 147.822C10.8528 146.77 9.4397 145.287 8.38733 143.32L4.86067 145.208ZM10.5985 151.266C13.0364 152.706 15.7432 153.416 18.672 153.416V149.416C16.4169 149.416 14.4196 148.878 12.6335 147.822L10.5985 151.266ZM18.672 153.416C22.2119 153.416 25.3393 152.607 27.9414 150.872L25.7226 147.544C23.9087 148.753 21.5961 149.416 18.672 149.416V153.416ZM27.9469 150.868C30.5381 149.129 32.4003 146.759 33.5047 143.814L29.7593 142.41C28.9437 144.585 27.6059 146.279 25.7171 147.548L27.9469 150.868ZM31.632 145.112H34.128V141.112H31.632V145.112ZM32.2561 142.408C31.1717 145.29 29.4949 147.456 27.2401 148.996L29.4959 152.3C32.4891 150.256 34.6523 147.398 35.9999 143.816L32.2561 142.408ZM27.2401 148.996C25.0124 150.518 22.1947 151.336 18.672 151.336V155.336C22.8293 155.336 26.4756 154.362 29.4959 152.3L27.2401 148.996ZM18.672 151.336C15.9627 151.336 13.5629 150.699 11.4251 149.449L9.40686 152.903C12.1971 154.533 15.3013 155.336 18.672 155.336V151.336ZM11.4516 149.465C9.33473 148.184 7.65881 146.418 6.41345 144.125L2.89855 146.035C4.46919 148.926 6.63327 151.224 9.38039 152.887L11.4516 149.465ZM6.42724 144.151C5.21777 141.845 4.592 139.209 4.592 136.2H0.592C0.592 139.783 1.34223 143.067 2.88476 146.009L6.42724 144.151ZM60.1695 151.752L61.1432 150.005L60.1695 151.752ZM55.5615 147.096L53.7953 148.034L53.8041 148.051L53.8132 148.067L55.5615 147.096ZM55.6095 132.888L57.3579 133.859L57.3642 133.848L55.6095 132.888ZM60.2175 128.232L61.1692 129.991L61.1792 129.986L60.2175 128.232ZM73.4175 128.232L72.4438 129.979L72.4548 129.985L72.4659 129.991L73.4175 128.232ZM77.9775 132.84L76.2175 133.79L76.2233 133.801L76.2292 133.811L77.9775 132.84ZM77.9775 147.096L79.7259 148.067L79.7322 148.056L77.9775 147.096ZM73.3215 151.752L72.3598 149.998L72.3478 150.005L73.3215 151.752ZM72.0255 150.216L72.9339 151.998L72.9405 151.994L72.9471 151.991L72.0255 150.216ZM76.0095 146.328L74.275 145.332L76.0095 146.328ZM76.0095 133.608L74.275 134.604L76.0095 133.608ZM72.0735 129.768L71.1377 131.536L71.1514 131.543L71.1651 131.55L72.0735 129.768ZM61.5135 129.768L62.4362 131.542L62.4428 131.539L62.4493 131.536L61.5135 129.768ZM57.6255 133.608L59.36 134.604L57.6255 133.608ZM57.5775 146.328L55.8292 147.299L55.836 147.312L55.843 147.324L57.5775 146.328ZM61.4655 150.216L60.5152 151.976L60.536 151.987L60.5571 151.998L61.4655 150.216ZM66.7455 151.384C64.6234 151.384 62.7716 150.913 61.1432 150.005L59.1958 153.499C61.4714 154.767 64.0036 155.384 66.7455 155.384V151.384ZM61.1432 150.005C59.5274 149.104 58.255 147.826 57.3098 146.125L53.8132 148.067C55.108 150.398 56.9076 152.224 59.1958 153.499L61.1432 150.005ZM57.3277 146.158C56.4178 144.445 55.9295 142.393 55.9295 139.944H51.9295C51.9295 142.935 52.5292 145.651 53.7953 148.034L57.3277 146.158ZM55.9295 139.944C55.9295 137.539 56.4284 135.532 57.3578 133.859L53.8612 131.917C52.5506 134.276 51.9295 136.973 51.9295 139.944H55.9295ZM57.3642 133.848C58.3093 132.12 59.5743 130.854 61.1691 129.991L59.2659 126.473C56.9567 127.722 55.1497 129.56 53.8548 131.928L57.3642 133.848ZM61.1792 129.986C62.8465 129.071 64.7198 128.6 66.8415 128.6V124.6C64.0992 124.6 61.5565 125.217 59.2558 126.478L61.1792 129.986ZM66.8415 128.6C68.9636 128.6 70.8154 129.071 72.4438 129.979L74.3912 126.485C72.1156 125.217 69.5834 124.6 66.8415 124.6V128.6ZM72.4659 129.991C74.0639 130.856 75.3081 132.105 76.2175 133.79L79.7375 131.89C78.4709 129.543 76.6751 127.72 74.3691 126.473L72.4659 129.991ZM76.2292 133.811C77.1568 135.481 77.6575 137.503 77.6575 139.944H81.6575C81.6575 136.945 81.0382 134.231 79.7258 131.869L76.2292 133.811ZM77.6575 139.944C77.6575 142.384 77.1571 144.428 76.2228 146.136L79.7322 148.056C81.0379 145.668 81.6575 142.944 81.6575 139.944H77.6575ZM76.2292 146.125C75.2887 147.818 74.0064 149.095 72.3598 149.998L74.2832 153.506C76.6046 152.233 78.4263 150.406 79.7258 148.067L76.2292 146.125ZM72.3478 150.005C70.7194 150.913 68.8676 151.384 66.7455 151.384V155.384C69.4874 155.384 72.0196 154.767 74.2952 153.499L72.3478 150.005ZM66.7455 153.464C68.9393 153.464 71.0118 152.978 72.9339 151.998L71.1171 148.434C69.7752 149.118 68.3278 149.464 66.7455 149.464V153.464ZM72.9471 151.991C74.9728 150.939 76.5738 149.362 77.744 147.324L74.275 145.332C73.4612 146.75 72.4062 147.765 71.1039 148.441L72.9471 151.991ZM77.744 147.324C78.9508 145.222 79.4975 142.729 79.4975 139.944H75.4975C75.4975 142.215 75.0522 143.978 74.275 145.332L77.744 147.324ZM79.4975 139.944C79.4975 137.186 78.9487 134.711 77.744 132.612L74.275 134.604C75.0543 135.961 75.4975 137.71 75.4975 139.944H79.4975ZM77.744 132.612C76.5764 130.578 74.99 129.01 72.9819 127.986L71.1651 131.55C72.421 132.19 73.4586 133.182 74.275 134.604L77.744 132.612ZM73.0093 128C71.0823 126.98 69.0001 126.472 66.7935 126.472V130.472C68.3629 130.472 69.8007 130.828 71.1377 131.536L73.0093 128ZM66.7935 126.472C64.5869 126.472 62.5047 126.98 60.5777 128L62.4493 131.536C63.7863 130.828 65.2241 130.472 66.7935 130.472V126.472ZM60.5908 127.994C58.6162 129.02 57.0528 130.588 55.891 132.612L59.36 134.604C60.1822 133.172 61.2108 132.18 62.4362 131.542L60.5908 127.994ZM55.891 132.612C54.6863 134.711 54.1375 137.186 54.1375 139.944H58.1375C58.1375 137.71 58.5807 135.961 59.36 134.604L55.891 132.612ZM54.1375 139.944C54.1375 142.719 54.6643 145.203 55.8292 147.299L59.3258 145.357C58.5707 143.997 58.1375 142.225 58.1375 139.944H54.1375ZM55.843 147.324C57.0019 149.342 58.5568 150.918 60.5152 151.976L62.4158 148.456C61.1742 147.786 60.1371 146.77 59.312 145.332L55.843 147.324ZM60.5571 151.998C62.4792 152.978 64.5518 153.464 66.7455 153.464V149.464C65.1633 149.464 63.7158 149.118 62.3739 148.434L60.5571 151.998ZM122.643 126.936H124.643V124.936H122.643V126.936ZM122.643 153V155H124.643V153H122.643ZM120.483 153H118.483V155H120.483V153ZM120.483 147.336H122.483L118.608 146.64L120.483 147.336ZM116.787 151.896L117.821 153.608L117.83 153.603L116.787 151.896ZM103.299 150.6L101.897 152.026L101.908 152.037L101.92 152.049L103.299 150.6ZM100.371 126.936V124.936H98.371V126.936H100.371ZM102.483 126.936H104.483V124.936H102.483V126.936ZM104.835 149.112L103.379 150.484L103.386 150.491L103.393 150.498L104.835 149.112ZM117.939 148.872L116.486 147.497L116.48 147.504L116.473 147.511L117.939 148.872ZM120.483 126.936V124.936H118.483V126.936H120.483ZM120.643 126.936V153H124.643V126.936H120.643ZM122.643 151H120.483V155H122.643V151ZM122.483 153V147.336H118.483V153H122.483ZM118.608 146.64C118.02 148.224 117.071 149.379 115.744 150.189L117.83 153.603C119.959 152.301 121.474 150.416 122.358 148.032L118.608 146.64ZM115.753 150.184C114.404 150.999 112.818 151.432 110.931 151.432V155.432C113.461 155.432 115.778 154.841 117.821 153.608L115.753 150.184ZM110.931 151.432C108.266 151.432 106.24 150.637 104.678 149.151L101.92 152.049C104.326 154.339 107.388 155.432 110.931 155.432V151.432ZM104.701 149.174C103.255 147.752 102.371 145.514 102.371 142.104H98.371C98.371 146.182 99.4389 149.608 101.897 152.026L104.701 149.174ZM102.371 142.104V126.936H98.371V142.104H102.371ZM100.371 128.936H102.483V124.936H100.371V128.936ZM100.483 126.936V141.96H104.483V126.936H100.483ZM100.483 141.96C100.483 145.388 101.352 148.333 103.379 150.484L106.291 147.74C105.182 146.563 104.483 144.74 104.483 141.96H100.483ZM103.393 150.498C105.408 152.595 108.097 153.56 111.219 153.56V149.56C108.965 149.56 107.398 148.893 106.277 147.726L103.393 150.498ZM111.219 153.56C114.499 153.56 117.304 152.496 119.405 150.233L116.473 147.511C115.246 148.832 113.571 149.56 111.219 149.56V153.56ZM119.392 150.247C121.565 147.951 122.483 144.717 122.483 140.904H118.483C118.483 144.131 117.705 146.209 116.486 147.497L119.392 150.247ZM122.483 140.904V126.936H118.483V140.904H122.483ZM120.483 128.936H122.643V124.936H120.483V128.936ZM147.077 132.312H145.077L148.975 132.944L147.077 132.312ZM150.485 127.944L151.524 129.653L151.536 129.646L151.548 129.638L150.485 127.944ZM156.725 126.408H158.725V124.408H156.725V126.408ZM156.725 128.664V130.664H158.725V128.664H156.725ZM149.621 130.872L150.916 132.397L150.924 132.39L150.932 132.382L149.621 130.872ZM147.077 153V155H149.077V153H147.077ZM144.917 153H142.917V155H144.917V153ZM144.917 126.936V124.936H142.917V126.936H144.917ZM147.077 126.936H149.077V124.936H147.077V126.936ZM148.975 132.944C149.475 131.445 150.322 130.384 151.524 129.653L149.446 126.235C147.384 127.488 145.96 129.339 145.18 131.68L148.975 132.944ZM151.548 129.638C152.777 128.867 154.458 128.408 156.725 128.408V124.408C153.936 124.408 151.458 124.973 149.422 126.25L151.548 129.638ZM154.725 126.408V128.664H158.725V126.408H154.725ZM156.725 126.664H156.005V130.664H156.725V126.664ZM156.005 126.664C153.035 126.664 150.421 127.53 148.31 129.362L150.932 132.382C152.214 131.27 153.855 130.664 156.005 130.664V126.664ZM148.327 129.347C146.002 131.321 145.077 134.381 145.077 137.976H149.077C149.077 134.979 149.848 133.303 150.916 132.397L148.327 129.347ZM145.077 137.976V153H149.077V137.976H145.077ZM147.077 151H144.917V155H147.077V151ZM146.917 153V126.936H142.917V153H146.917ZM144.917 128.936H147.077V124.936H144.917V128.936ZM145.077 126.936V132.312H149.077V126.936H145.077ZM177.635 151.464L176.486 153.101L176.492 153.106L176.499 153.11L177.635 151.464ZM174.562 145.992V143.992H172.364L172.571 146.18L174.562 145.992ZM176.771 145.992L178.762 145.804L178.591 143.992H176.771V145.992ZM179.075 150.024L177.905 151.646L177.914 151.653L177.923 151.659L179.075 150.024ZM189.491 150.024L190.796 151.54L190.799 151.537L189.491 150.024ZM190.307 143.784L188.823 145.126L188.857 145.163L188.892 145.198L190.307 143.784ZM188.003 142.248L187.293 144.118L188.003 142.248ZM184.211 141.096L183.695 143.029L183.707 143.032L184.211 141.096ZM179.555 139.608L178.761 141.444L178.782 141.453L178.803 141.461L179.555 139.608ZM176.531 137.352L174.998 138.637V138.637L176.531 137.352ZM176.387 130.008L178.011 131.175L178.019 131.163L178.027 131.152L176.387 130.008ZM179.459 127.512L180.299 129.327L179.459 127.512ZM190.499 128.664L189.224 130.205L189.24 130.219L189.256 130.231L190.499 128.664ZM193.235 134.28V136.28H195.344L195.232 134.173L193.235 134.28ZM191.075 134.28L189.078 134.391L189.183 136.28H191.075V134.28ZM189.059 130.056L187.744 131.564L189.059 130.056ZM179.267 129.864L178.027 128.294L179.267 129.864ZM178.451 136.344L176.945 137.661L176.975 137.694L177.005 137.726L178.451 136.344ZM180.995 138.072L180.221 139.916L180.256 139.931L180.292 139.945L180.995 138.072ZM185.027 139.32L184.507 141.251L184.518 141.254L185.027 139.32ZM189.395 140.76L188.587 142.59L188.619 142.604L188.652 142.617L189.395 140.76ZM192.227 142.776L190.708 144.078L190.72 144.091L190.732 144.105L192.227 142.776ZM189.203 152.472L188.362 150.657L189.203 152.472ZM184.786 151.384C182.162 151.384 180.207 150.809 178.77 149.818L176.499 153.11C178.774 154.679 181.587 155.384 184.786 155.384V151.384ZM178.783 149.827C177.474 148.908 176.727 147.633 176.554 145.804L172.571 146.18C172.846 149.087 174.147 151.46 176.486 153.101L178.783 149.827ZM174.562 147.992H176.771V143.992H174.562V147.992ZM174.779 146.18C174.993 148.447 176.059 150.315 177.905 151.646L180.244 148.402C179.338 147.749 178.868 146.929 178.762 145.804L174.779 146.18ZM177.923 151.659C179.777 152.965 182.132 153.512 184.786 153.512V149.512C182.641 149.512 181.188 149.067 180.226 148.389L177.923 151.659ZM184.786 153.512C187.101 153.512 189.182 152.929 190.796 151.54L188.185 148.508C187.495 149.103 186.44 149.512 184.786 149.512V153.512ZM190.799 151.537C192.39 150.16 193.267 148.373 193.267 146.28H189.267C189.267 147.131 188.959 147.84 188.182 148.511L190.799 151.537ZM193.267 146.28C193.267 144.802 192.786 143.435 191.721 142.37L188.892 145.198C189.107 145.413 189.267 145.71 189.267 146.28H193.267ZM191.79 142.442C190.949 141.514 189.907 140.831 188.712 140.378L187.293 144.118C187.954 144.369 188.448 144.71 188.823 145.126L191.79 142.442ZM188.712 140.378C187.687 139.989 186.344 139.584 184.714 139.16L183.707 143.032C185.277 143.44 186.462 143.803 187.293 144.118L188.712 140.378ZM184.726 139.164C182.847 138.663 181.383 138.191 180.306 137.755L178.803 141.461C180.094 141.985 181.734 142.505 183.695 143.028L184.726 139.164ZM180.348 137.772C179.451 137.384 178.696 136.821 178.063 136.067L174.998 138.637C176.029 139.867 177.29 140.808 178.761 141.444L180.348 137.772ZM178.063 136.067C177.611 135.527 177.283 134.699 177.283 133.368H173.283C173.283 135.365 173.786 137.193 174.998 138.637L178.063 136.067ZM177.283 133.368C177.283 132.587 177.509 131.873 178.011 131.175L174.762 128.841C173.792 130.191 173.283 131.717 173.283 133.368H177.283ZM178.027 131.152C178.537 130.421 179.268 129.804 180.299 129.327L178.618 125.697C177.025 126.436 175.708 127.483 174.746 128.864L178.027 131.152ZM180.299 129.327C181.311 128.858 182.505 128.6 183.923 128.6V124.6C182.012 124.6 180.23 124.95 178.618 125.697L180.299 129.327ZM183.923 128.6C186.301 128.6 188.004 129.196 189.224 130.205L191.773 127.123C189.665 125.38 186.984 124.6 183.923 124.6V128.6ZM189.256 130.231C190.45 131.177 191.136 132.488 191.237 134.387L195.232 134.173C195.077 131.272 193.939 128.839 191.741 127.097L189.256 130.231ZM193.235 132.28H191.075V136.28H193.235V132.28ZM193.071 134.169C192.947 131.93 192.047 130.008 190.373 128.548L187.744 131.564C188.566 132.28 189.01 133.174 189.078 134.391L193.071 134.169ZM190.373 128.548C188.654 127.05 186.402 126.424 183.875 126.424V130.424C185.763 130.424 186.967 130.886 187.744 131.564L190.373 128.548ZM183.875 126.424C181.661 126.424 179.662 127.003 178.027 128.294L180.506 131.434C181.303 130.805 182.376 130.424 183.875 130.424V126.424ZM178.027 128.294C176.4 129.579 175.443 131.297 175.443 133.368H179.443C179.443 132.687 179.702 132.069 180.506 131.434L178.027 128.294ZM175.443 133.368C175.443 134.971 175.895 136.461 176.945 137.661L179.956 135.027C179.662 134.691 179.443 134.197 179.443 133.368H175.443ZM177.005 137.726C177.91 138.672 178.99 139.4 180.221 139.916L181.768 136.228C181.015 135.912 180.399 135.488 179.896 134.962L177.005 137.726ZM180.292 139.945C181.4 140.36 182.812 140.795 184.507 141.251L185.546 137.389C183.913 136.949 182.637 136.552 181.697 136.199L180.292 139.945ZM184.518 141.254C186.291 141.721 187.635 142.17 188.587 142.59L190.202 138.93C188.978 138.39 187.41 137.879 185.535 137.386L184.518 141.254ZM188.652 142.617C189.479 142.948 190.155 143.432 190.708 144.078L193.745 141.474C192.762 140.328 191.55 139.468 190.137 138.903L188.652 142.617ZM190.732 144.105C191.093 144.511 191.379 145.16 191.379 146.28H195.379C195.379 144.456 194.896 142.769 193.721 141.447L190.732 144.105ZM191.379 146.28C191.379 147.234 191.125 148.058 190.618 148.807L193.931 151.049C194.896 149.622 195.379 148.014 195.379 146.28H191.379ZM190.618 148.807C190.106 149.564 189.378 150.186 188.362 150.657L190.043 154.287C191.651 153.542 192.971 152.468 193.931 151.049L190.618 148.807ZM188.362 150.657C187.345 151.128 186.166 151.384 184.786 151.384V155.384C186.671 155.384 188.436 155.032 190.043 154.287L188.362 150.657ZM237.734 140.808V142.808H239.524L239.722 141.029L237.734 140.808ZM215.222 140.808V138.808H213.166L213.223 140.863L215.222 140.808ZM216.758 146.712L218.473 145.683L216.758 146.712ZM220.55 150.312L221.459 148.53L220.55 150.312ZM232.118 149.64L233.289 151.261L233.299 151.254L233.308 151.247L232.118 149.64ZM235.382 144.456V142.456H233.752L233.423 144.053L235.382 144.456ZM237.638 144.456L239.602 144.835L240.06 142.456H237.638V144.456ZM233.702 150.936L234.925 152.519L234.932 152.513L234.94 152.507L233.702 150.936ZM219.158 151.752L218.172 153.492L219.158 151.752ZM214.646 147.096L212.88 148.034L212.886 148.046L214.646 147.096ZM214.598 132.84L212.838 131.89L212.832 131.901L212.826 131.912L214.598 132.84ZM219.11 128.232L220.074 129.984L220.085 129.978L220.096 129.972L219.11 128.232ZM232.166 128.232L231.141 129.95L231.159 129.96L231.177 129.97L232.166 128.232ZM236.39 132.504L234.627 133.448L234.63 133.455L234.634 133.462L236.39 132.504ZM235.67 139.032V141.032H237.588L237.668 139.115L235.67 139.032ZM234.422 133.176L232.677 134.153L232.684 134.166L232.692 134.179L234.422 133.176ZM230.726 129.624L229.817 131.406L229.831 131.413L229.846 131.42L230.726 129.624ZM220.55 129.624L221.444 131.413L221.452 131.409L221.459 131.406L220.55 129.624ZM216.758 133.176L215.058 132.122L215.05 132.135L215.043 132.147L216.758 133.176ZM215.222 139.032L213.223 138.976L213.166 141.032H215.222V139.032ZM235.83 138.216C235.83 139.351 235.797 140.125 235.746 140.587L239.722 141.029C239.798 140.339 239.83 139.385 239.83 138.216H235.83ZM237.734 138.808H215.222V142.808H237.734V138.808ZM213.223 140.863C213.294 143.457 213.867 145.781 215.043 147.741L218.473 145.683C217.729 144.443 217.278 142.831 217.221 140.753L213.223 140.863ZM215.043 147.741C216.184 149.642 217.719 151.113 219.641 152.094L221.459 148.53C220.245 147.911 219.252 146.982 218.473 145.683L215.043 147.741ZM219.641 152.094C221.506 153.045 223.532 153.512 225.686 153.512V149.512C224.128 149.512 222.73 149.179 221.459 148.53L219.641 152.094ZM225.686 153.512C228.58 153.512 231.156 152.802 233.289 151.261L230.947 148.019C229.624 148.974 227.912 149.512 225.686 149.512V153.512ZM233.308 151.247C235.446 149.664 236.797 147.5 237.341 144.859L233.423 144.053C233.071 145.764 232.246 147.056 230.927 148.033L233.308 151.247ZM235.382 146.456H237.638V142.456H235.382V146.456ZM235.674 144.077C235.252 146.265 234.196 148 232.464 149.365L234.94 152.507C237.432 150.544 238.999 147.959 239.602 144.835L235.674 144.077ZM232.479 149.353C230.786 150.661 228.571 151.384 225.686 151.384V155.384C229.264 155.384 232.393 154.475 234.925 152.519L232.479 149.353ZM225.686 151.384C223.563 151.384 221.733 150.913 220.144 150.012L218.172 153.492C220.423 154.767 222.944 155.384 225.686 155.384V151.384ZM220.144 150.012C218.564 149.117 217.322 147.844 216.406 146.146L212.886 148.046C214.145 150.38 215.912 152.211 218.172 153.492L220.144 150.012ZM216.412 146.158C215.502 144.445 215.014 142.393 215.014 139.944H211.014C211.014 142.935 211.614 145.651 212.88 148.034L216.412 146.158ZM215.014 139.944C215.014 137.485 215.49 135.447 216.37 133.768L212.826 131.912C211.594 134.265 211.014 136.963 211.014 139.944H215.014ZM216.358 133.79C217.272 132.096 218.507 130.846 220.074 129.984L218.146 126.48C215.873 127.73 214.1 129.552 212.838 131.89L216.358 133.79ZM220.096 129.972C221.681 129.074 223.526 128.6 225.686 128.6V124.6C222.917 124.6 220.378 125.214 218.124 126.492L220.096 129.972ZM225.686 128.6C227.885 128.6 229.678 129.077 231.141 129.95L233.19 126.514C231.006 125.211 228.479 124.6 225.686 124.6V128.6ZM231.177 129.97C232.723 130.85 233.854 132.006 234.627 133.448L238.153 131.56C237.006 129.418 235.321 127.726 233.155 126.494L231.177 129.97ZM234.634 133.462C235.43 134.921 235.83 136.495 235.83 138.216H239.83C239.83 135.841 239.269 133.607 238.146 131.546L234.634 133.462ZM237.668 139.115C237.776 136.525 237.313 134.175 236.152 132.173L232.692 134.179C233.387 135.377 233.756 136.931 233.672 138.949L237.668 139.115ZM236.167 132.199C235.083 130.263 233.557 128.784 231.606 127.828L229.846 131.42C231.03 132 231.969 132.889 232.677 134.153L236.167 132.199ZM231.635 127.842C229.775 126.894 227.766 126.424 225.638 126.424V130.424C227.158 130.424 228.541 130.754 229.817 131.406L231.635 127.842ZM225.638 126.424C223.51 126.424 221.501 126.894 219.641 127.842L221.459 131.406C222.735 130.754 224.118 130.424 225.638 130.424V126.424ZM219.655 127.835C217.757 128.785 216.226 130.239 215.058 132.122L218.458 134.23C219.274 132.913 220.271 131.999 221.444 131.413L219.655 127.835ZM215.043 132.147C213.869 134.103 213.294 136.409 213.223 138.976L217.221 139.088C217.278 137.047 217.727 135.449 218.473 134.205L215.043 132.147ZM215.222 141.032H235.67V137.032H215.222V141.032Z" fill="#CF5F5F"/>
<path d="M265.6 153.144C265.056 153.144 264.608 152.968 264.256 152.616C263.904 152.264 263.728 151.816 263.728 151.272C263.728 150.728 263.904 150.28 264.256 149.928C264.608 149.576 265.056 149.4 265.6 149.4C266.112 149.4 266.544 149.576 266.896 149.928C267.248 150.28 267.424 150.728 267.424 151.272C267.424 151.816 267.248 152.264 266.896 152.616C266.544 152.968 266.112 153.144 265.6 153.144Z" fill="#303030"/>
<path d="M264.256 152.616L262.842 154.03L264.256 152.616ZM266.896 152.616L268.31 154.03L266.896 152.616ZM265.6 151.144C265.586 151.144 265.576 151.143 265.569 151.143C265.563 151.142 265.559 151.142 265.559 151.142C265.559 151.142 265.562 151.142 265.567 151.144C265.572 151.145 265.579 151.147 265.587 151.15C265.605 151.157 265.623 151.167 265.64 151.178C265.656 151.189 265.667 151.198 265.67 151.202L262.842 154.03C263.606 154.794 264.58 155.144 265.6 155.144V151.144ZM265.67 151.202C265.674 151.205 265.683 151.216 265.694 151.232C265.705 151.249 265.715 151.267 265.722 151.285C265.725 151.293 265.727 151.3 265.728 151.305C265.73 151.31 265.73 151.313 265.73 151.313C265.73 151.313 265.73 151.309 265.729 151.303C265.729 151.296 265.728 151.286 265.728 151.272H261.728C261.728 152.292 262.078 153.266 262.842 154.03L265.67 151.202ZM265.728 151.272C265.728 151.258 265.729 151.248 265.729 151.241C265.73 151.235 265.73 151.231 265.73 151.231C265.73 151.231 265.73 151.234 265.728 151.239C265.727 151.244 265.725 151.251 265.722 151.259C265.715 151.277 265.705 151.295 265.694 151.312C265.683 151.328 265.674 151.339 265.67 151.342L262.842 148.514C262.078 149.278 261.728 150.252 261.728 151.272H265.728ZM265.67 151.342C265.667 151.346 265.656 151.355 265.64 151.366C265.623 151.377 265.605 151.387 265.587 151.394C265.579 151.397 265.572 151.399 265.567 151.4C265.562 151.402 265.559 151.402 265.559 151.402C265.559 151.402 265.563 151.402 265.569 151.401C265.576 151.401 265.586 151.4 265.6 151.4V147.4C264.58 147.4 263.606 147.75 262.842 148.514L265.67 151.342ZM265.6 151.4C265.613 151.4 265.613 151.401 265.602 151.399C265.591 151.397 265.574 151.393 265.553 151.384C265.533 151.376 265.514 151.366 265.5 151.356C265.486 151.346 265.48 151.34 265.482 151.342L268.31 148.514C267.571 147.775 266.626 147.4 265.6 147.4V151.4ZM265.482 151.342C265.478 151.339 265.469 151.328 265.458 151.312C265.447 151.295 265.437 151.277 265.43 151.259C265.427 151.251 265.425 151.244 265.424 151.239C265.422 151.234 265.422 151.231 265.422 151.231C265.422 151.231 265.422 151.235 265.423 151.241C265.423 151.248 265.424 151.258 265.424 151.272H269.424C269.424 150.252 269.074 149.278 268.31 148.514L265.482 151.342ZM265.424 151.272C265.424 151.286 265.423 151.296 265.423 151.303C265.422 151.309 265.422 151.313 265.422 151.313C265.422 151.313 265.422 151.31 265.424 151.305C265.425 151.3 265.427 151.293 265.43 151.285C265.437 151.267 265.447 151.249 265.458 151.232C265.469 151.216 265.478 151.205 265.482 151.202L268.31 154.03C269.074 153.266 269.424 152.292 269.424 151.272H265.424ZM265.482 151.202C265.48 151.204 265.486 151.198 265.5 151.188C265.514 151.178 265.533 151.168 265.553 151.16C265.574 151.151 265.591 151.147 265.602 151.145C265.613 151.143 265.613 151.144 265.6 151.144V155.144C266.626 155.144 267.571 154.769 268.31 154.03L265.482 151.202Z" fill="#303030"/>
</svg>
