<svg width="12" height="13" viewBox="0 0 12 13" fill="none" xmlns="http://www.w3.org/2000/svg">
<path d="M0.80394 7.47271L0.19377 6.82859C-0.06459 6.55585 -0.06459 6.11483 0.19377 5.845L5.53413 0.204553C5.79249 -0.0681844 6.21026 -0.0681844 6.46587 0.204553L11.8062 5.84209C12.0646 6.11483 12.0646 6.55585 11.8062 6.82569L11.1961 7.46981C10.935 7.74545 10.5089 7.73965 10.2533 7.45821L7.10078 3.96485V12.3036C7.10078 12.6895 6.80669 13 6.44114 13H5.56161C5.19606 13 4.90197 12.6895 4.90197 12.3036V3.96485L1.74668 7.46111C1.49107 7.74545 1.06505 7.75126 0.80394 7.47271Z" fill="#504B4B"/>
</svg>
